<svg width="32" height="32" viewBox="0 0 32 32" fill="none" xmlns="http://www.w3.org/2000/svg">
<g clip-path="url(#clip0_14672_71306)">
<rect width="32" height="32" rx="8.96354" fill="url(#paint0_linear_14672_71306)"/>
<path opacity="0.3" d="M20.142 21.2822C17.3068 20.8083 13.9683 14.348 11.0873 12.5972C9.82998 11.9659 9.45184 9.21331 12.3809 10.2873C15.1526 11.3036 16.0766 14.0755 17.4625 15.6462L18.6878 17.8326L20.142 21.2822Z" fill="white"/>
<g filter="url(#filter0_d_14672_71306)">
<path fill-rule="evenodd" clip-rule="evenodd" d="M13.4162 12.5673C12.9543 13.1528 12.1069 13.1855 11.4631 12.8091C11.3905 12.7667 11.3199 12.7274 11.2487 12.6878L11.2069 12.6645C10.8421 12.4611 10.4694 12.3594 10.0888 12.3594C9.56542 12.3594 9.09757 12.4533 8.68523 12.641C8.27289 12.8287 7.91606 13.079 7.61473 13.3919C7.32927 13.7048 7.10725 14.0646 6.94866 14.4713C6.80592 14.878 6.73455 15.3004 6.73455 15.7384C6.73455 16.1764 6.80592 16.5988 6.94866 17.0056C7.10725 17.4123 7.32927 17.7721 7.61473 18.085C7.91606 18.3978 8.27289 18.6481 8.68523 18.8358C9.09757 19.0236 9.56542 19.1174 10.0888 19.1174C10.4666 19.1174 10.8215 19.0551 11.1535 18.9305C12.9599 18.1493 13.9469 16.5576 14.9603 14.9233C16.021 13.2127 17.1107 11.4554 19.1994 10.5321C20.078 10.0529 20.9884 9.83305 21.9876 9.83305C25.3329 9.83305 27.8315 12.3324 27.8315 15.7172C27.8315 19.1306 25.3051 21.6585 21.9598 21.6585C19.8156 21.6585 18.1551 20.6353 16.0528 18.0041C15.5133 18.8148 14.8178 19.6413 13.9787 20.2855C13.7474 20.4811 13.4896 20.6549 13.2051 20.8069C12.8404 21.0103 12.4677 21.1745 12.087 21.2997C11.7064 21.4248 11.3417 21.5109 10.9928 21.5578C10.6439 21.6204 10.3425 21.6517 10.0888 21.6517C9.23238 21.6517 8.42356 21.5109 7.66232 21.2293C6.90107 20.9477 6.24291 20.5488 5.68784 20.0326C5.13277 19.5163 4.6887 18.8984 4.35566 18.1788C4.03847 17.4436 3.87988 16.6301 3.87988 15.7384C3.87988 14.8468 4.03847 14.0411 4.35566 13.3215C4.6887 12.5863 5.13277 11.9605 5.68784 11.4443C6.24291 10.9281 6.90107 10.5292 7.66232 10.2476C8.42356 9.96599 9.23238 9.8252 10.0888 9.8252C10.8183 9.8252 11.5478 9.96599 12.2774 10.2476C12.6113 10.3667 12.9261 10.5188 13.2219 10.7039C13.861 11.1038 13.8832 11.9753 13.4162 12.5673ZM25.0414 15.7029C25.0414 17.5024 23.6811 18.8306 21.8627 18.8306C20.4607 18.8306 19.4057 18.0737 17.5318 15.7315C19.1697 13.4892 20.3913 12.6037 21.8765 12.6037C23.7088 12.6037 25.0414 13.932 25.0414 15.7029Z" fill="url(#paint1_linear_14672_71306)"/>
<mask id="mask0_14672_71306" style="mask-type:alpha" maskUnits="userSpaceOnUse" x="9" y="9" width="56" height="63">
<path fill-rule="evenodd" clip-rule="evenodd" d="M21.9597 21.6584C19.8018 21.6584 18.1338 20.6222 16.0125 17.9537L16.6291 16.9738V12.7545C18.3633 10.703 19.9997 9.83301 21.9874 9.83301C25.3328 9.83301 27.8313 12.3323 27.8313 15.7172C27.8313 19.1305 25.305 21.6584 21.9597 21.6584ZM25.0413 15.7029C25.0413 17.5024 23.6809 18.8306 21.8625 18.8306C20.4605 18.8306 19.4056 18.0737 17.5316 15.7314C19.1696 13.4892 20.3911 12.6037 21.8764 12.6037C23.7087 12.6037 25.0413 13.9319 25.0413 15.7029ZM37.9246 36.7261C44.2415 26.3416 50.7548 15.6341 64.978 11.5569L57.1641 29.9544L49.6672 41.237C46.5435 50.0123 33.1162 69.8501 19.6796 71.3238C3.01527 73.1515 11.5579 63.8021 17.8054 58.1608C27.3917 54.0415 32.588 45.499 37.9246 36.7261Z" fill="white"/>
</mask>
<g mask="url(#mask0_14672_71306)">
<path d="M21.0178 18.7594C22.2227 19.3435 19.1744 21.1554 19.1744 21.1554C18.4997 20.7253 18.078 20.3925 17.3912 19.7011C16.7045 19.0098 16.367 19.0973 15.7988 18.4183C15.8912 18.2335 17.5367 15.7236 17.5367 15.7236C18.862 17.3448 19.813 18.1754 21.0178 18.7594Z" fill="url(#paint2_linear_14672_71306)" fill-opacity="0.19"/>
</g>
</g>
</g>
<defs>
<filter id="filter0_d_14672_71306" x="3.11445" y="9.8252" width="25.4825" height="13.8997" filterUnits="userSpaceOnUse" color-interpolation-filters="sRGB">
<feFlood flood-opacity="0" result="BackgroundImageFix"/>
<feColorMatrix in="SourceAlpha" type="matrix" values="0 0 0 0 0 0 0 0 0 0 0 0 0 0 0 0 0 0 127 0" result="hardAlpha"/>
<feOffset dy="1.30123"/>
<feGaussianBlur stdDeviation="0.382716"/>
<feComposite in2="hardAlpha" operator="out"/>
<feColorMatrix type="matrix" values="0 0 0 0 0 0 0 0 0 0 0 0 0 0 0 0 0 0 0.03 0"/>
<feBlend mode="normal" in2="BackgroundImageFix" result="effect1_dropShadow_14672_71306"/>
<feBlend mode="normal" in="SourceGraphic" in2="effect1_dropShadow_14672_71306" result="shape"/>
</filter>
<linearGradient id="paint0_linear_14672_71306" x1="16" y1="32" x2="16" y2="4.73286e-06" gradientUnits="userSpaceOnUse">
<stop stop-color="#00A5D9"/>
<stop offset="1" stop-color="#01E7CC"/>
</linearGradient>
<linearGradient id="paint1_linear_14672_71306" x1="16.0234" y1="9.83354" x2="16.0234" y2="21.6585" gradientUnits="userSpaceOnUse">
<stop stop-color="white"/>
<stop offset="1" stop-color="#F1F1F1"/>
</linearGradient>
<linearGradient id="paint2_linear_14672_71306" x1="16.8249" y1="16.8522" x2="20.0224" y2="19.8068" gradientUnits="userSpaceOnUse">
<stop stop-opacity="0.7"/>
<stop offset="1" stop-opacity="0"/>
</linearGradient>
<clipPath id="clip0_14672_71306">
<rect width="32" height="32" rx="8.96354" fill="white"/>
</clipPath>
</defs>
</svg>
