<svg width="170" height="50" viewBox="0 0 170 50" fill="none" xmlns="http://www.w3.org/2000/svg">
<g clip-path="url(#clip0_14169_66720)">
<path d="M163.289 0.555542H6.71052C3.31324 0.555542 0.559204 3.29158 0.559204 6.66665V43.3333C0.559204 46.7084 3.31324 49.4444 6.71052 49.4444H163.289C166.687 49.4444 169.441 46.7084 169.441 43.3333V6.66665C169.441 3.29158 166.687 0.555542 163.289 0.555542Z" fill="white" stroke="black"/>
<path fill-rule="evenodd" clip-rule="evenodd" d="M85.727 27.1942C82.7619 27.1942 80.3583 29.4293 80.3583 32.5122C80.3583 35.567 82.7776 37.83 85.727 37.83C88.6921 37.83 91.0956 35.5795 91.0956 32.5122C91.0956 29.4293 88.6921 27.1942 85.727 27.1942ZM85.727 35.7228C84.1048 35.7228 82.7086 34.3887 82.7086 32.4997C82.7086 30.5826 84.108 29.2765 85.727 29.2765C87.3493 29.2765 88.7455 30.5826 88.7455 32.4997C88.7486 34.4012 87.3493 35.7228 85.727 35.7228ZM74.0139 27.1942C71.0487 27.1942 68.6452 29.4293 68.6452 32.5122C68.6452 35.567 71.0645 37.83 74.0139 37.83C76.979 37.83 79.3825 35.5795 79.3825 32.5122C79.3825 29.4293 76.9759 27.1942 74.0139 27.1942ZM74.0139 35.7228C72.3917 35.7228 70.9955 34.3887 70.9955 32.4997C70.9955 30.5826 72.3948 29.2765 74.0139 29.2765C75.6361 29.2765 77.0324 30.5826 77.0324 32.4997C77.0324 34.4012 75.6361 35.7228 74.0139 35.7228ZM60.0761 28.8183V31.0688H65.5139C65.3476 32.3314 64.927 33.2634 64.2838 33.9024C63.4868 34.6942 62.2569 35.5545 60.0887 35.5545C56.747 35.5545 54.1333 32.8737 54.1333 29.5539C54.1333 26.234 56.747 23.5533 60.0887 23.5533C61.8929 23.5533 63.2076 24.2609 64.1834 25.1649L65.7899 23.5688C64.4345 22.2784 62.6302 21.2902 60.1013 21.2902C55.5171 21.2902 51.6702 24.9997 51.6702 29.5415C51.6702 34.0957 55.514 37.7927 60.1013 37.7927C62.5769 37.7927 64.4345 36.9885 65.9029 35.4735C67.3996 33.9866 67.8734 31.8887 67.8734 30.196C67.8734 29.6693 67.8326 29.1954 67.7479 28.7933H60.073C60.0761 28.7902 60.0761 28.8183 60.0761 28.8183ZM117.085 30.5702C116.637 29.3763 115.281 27.1817 112.501 27.1817C109.746 27.1817 107.456 29.3357 107.456 32.4997C107.456 35.4859 109.721 37.8176 112.768 37.8176C115.215 37.8176 116.64 36.3307 117.226 35.4579L115.41 34.2484C114.807 35.1368 113.969 35.7197 112.78 35.7197C111.579 35.7197 110.738 35.1774 110.179 34.1082L117.337 31.1624C117.337 31.1655 117.085 30.5702 117.085 30.5702ZM109.787 32.3469C109.731 30.2927 111.394 29.2484 112.583 29.2484C113.521 29.2484 114.303 29.7066 114.569 30.3737L109.787 32.3469ZM103.973 37.4997H106.323V21.8763H103.973V37.4997ZM100.113 28.3756H100.029C99.4985 27.749 98.4913 27.1817 97.2048 27.1817C94.5347 27.1817 92.0747 29.5165 92.0747 32.5153C92.0747 35.5015 94.522 37.8083 97.2048 37.8083C98.4756 37.8083 99.4985 37.2378 100.029 36.5988H100.113V37.3625C100.113 39.3918 99.0215 40.4859 97.2613 40.4859C95.8211 40.4859 94.9269 39.4573 94.5628 38.5969L92.5202 39.4448C93.107 40.8476 94.6727 42.5838 97.2581 42.5838C100.013 42.5838 102.347 40.9723 102.347 37.0415V27.4997H100.126V28.3756C100.129 28.3756 100.113 28.3756 100.113 28.3756ZM97.415 35.7228C95.7929 35.7228 94.4374 34.3763 94.4374 32.5153C94.4374 30.6387 95.7929 29.2796 97.415 29.2796C99.0215 29.2796 100.267 30.6543 100.267 32.5153C100.283 34.3763 99.0247 35.7228 97.415 35.7228ZM128.089 21.8763H122.469V37.4997H124.82V31.5832H128.093C130.694 31.5832 133.251 29.7098 133.251 26.7359C133.251 23.7622 130.703 21.8763 128.089 21.8763ZM128.159 29.4012H124.817V24.0396H128.159C129.919 24.0396 130.913 25.4828 130.913 26.7204C130.913 27.9454 129.906 29.4012 128.159 29.4012ZM142.67 27.1662C140.964 27.1662 139.203 27.9174 138.475 29.5539L140.559 30.4143C141.007 29.5539 141.829 29.2609 142.698 29.2609C143.916 29.2609 145.146 29.984 145.174 31.2746V31.4398C144.754 31.2029 143.831 30.8413 142.727 30.8413C140.477 30.8413 138.195 32.0633 138.195 34.3544C138.195 36.4523 140.041 37.7989 142.097 37.7989C143.675 37.7989 144.544 37.0913 145.086 36.2715H145.171V37.4809H147.437V31.4959C147.437 28.7092 145.353 27.1662 142.67 27.1662ZM142.375 35.7228C141.607 35.7228 140.531 35.3488 140.531 34.3887C140.531 33.1793 141.874 32.7209 143.019 32.7209C144.054 32.7209 144.544 32.9423 145.159 33.2478C144.989 34.6505 143.797 35.7104 142.375 35.7228ZM155.701 27.4997L153.003 34.2765H152.918L150.122 27.4997H147.594L151.789 36.9728L149.398 42.2378H151.845L158.299 27.4997H155.701ZM134.547 37.4997H136.897V21.8763H134.547V37.4997Z" fill="black"/>
<path fill-rule="evenodd" clip-rule="evenodd" d="M12.4858 9.41681C12.1219 9.80646 11.9116 10.4019 11.9116 11.1812V38.8214C11.9116 39.6007 12.1219 40.1961 12.4983 40.5702L12.5956 40.6543L28.1838 25.1681L28.3606 24.9951L28.1838 24.8221L12.5831 9.33264L12.4858 9.41681Z" fill="black"/>
<path fill-rule="evenodd" clip-rule="evenodd" d="M34.9726 30.3459L29.7734 25.1807L29.5813 25L29.7734 24.8192L34.9726 19.6539L35.0855 19.7225L41.2355 23.195C42.9958 24.18 42.9958 25.8073 41.2355 26.8048L35.0855 30.2774L34.9726 30.3459Z" fill="black"/>
<path fill-rule="evenodd" clip-rule="evenodd" d="M34.3072 30.833L28.9951 25.5555L13.3097 41.1384C13.8839 41.7494 14.8472 41.818 15.9234 41.2227L34.3072 30.833Z" fill="black"/>
<path fill-rule="evenodd" clip-rule="evenodd" d="M34.3473 19.2533L15.7719 8.87923C14.6844 8.26826 13.7971 8.24947 13.2201 8.86044L28.9798 24.5307L34.3473 19.2533Z" fill="black"/>
<path d="M58.361 12.6302V15.6466C58.2481 15.795 58.0717 15.9577 57.8313 16.135C57.5947 16.3085 57.2797 16.4586 56.8866 16.5853C56.4933 16.7118 56.0037 16.7752 55.4175 16.7752C54.9187 16.7752 54.4618 16.692 54.0468 16.5255C53.6318 16.3556 53.2732 16.1078 52.971 15.7823C52.6725 15.4567 52.4413 15.0607 52.2775 14.5942C52.1136 14.124 52.0317 13.5886 52.0317 12.9883V12.4403C52.0317 11.8435 52.1063 11.3118 52.2556 10.8452C52.4085 10.375 52.627 9.97717 52.9109 9.65165C53.1949 9.32612 53.5371 9.08018 53.9376 8.9138C54.3417 8.74381 54.7986 8.65881 55.3083 8.65881C55.96 8.65881 56.4988 8.76731 56.9248 8.98434C57.3544 9.19772 57.6857 9.49431 57.9187 9.87409C58.1517 10.2539 58.2991 10.6879 58.361 11.1762H57.0177C56.9739 10.9013 56.8884 10.6553 56.761 10.4383C56.6372 10.2213 56.4588 10.0513 56.2258 9.92835C55.9964 9.80175 55.6979 9.73846 55.3302 9.73846C55.0134 9.73846 54.735 9.79814 54.4946 9.91749C54.2544 10.0368 54.0541 10.2123 53.8939 10.4437C53.7373 10.6752 53.619 10.9573 53.5389 11.2901C53.4588 11.6228 53.4188 12.0026 53.4188 12.4294V12.9883C53.4188 13.4223 53.4643 13.8075 53.5554 14.1438C53.65 14.4802 53.7846 14.7642 53.9595 14.9956C54.1378 15.2271 54.3545 15.4025 54.6093 15.5218C54.8641 15.6376 55.1518 15.6955 55.4721 15.6955C55.7853 15.6955 56.042 15.6702 56.2421 15.6195C56.4423 15.5653 56.6007 15.502 56.7173 15.4296C56.8374 15.3537 56.9302 15.2814 56.9957 15.2126V13.6447H55.341V12.6302H58.361ZM65.3073 15.587V16.6666H61.0859V15.587H65.3073ZM61.4736 8.76731V16.6666H60.1029V8.76731H61.4736ZM64.7557 12.066V13.1293H61.0859V12.066H64.7557ZM65.28 8.76731V9.85239H61.0859V8.76731H65.28ZM70.0308 8.76731V16.6666H68.6711V8.76731H70.0308ZM72.5266 8.76731V9.85239H66.1972V8.76731H72.5266ZM78.009 8.76731V16.6666H76.6382V8.76731H78.009ZM83.0439 8.76731V16.6666H81.6841V8.76731H83.0439ZM85.5395 8.76731V9.85239H79.2101V8.76731H85.5395ZM95.8987 12.5V12.934C95.8987 13.5307 95.8204 14.0661 95.6639 14.5398C95.5073 15.0137 95.2834 15.417 94.9922 15.7497C94.7045 16.0825 94.3587 16.3375 93.9545 16.5147C93.5504 16.6883 93.1026 16.7752 92.6112 16.7752C92.1233 16.7752 91.6773 16.6883 91.2732 16.5147C90.8727 16.3375 90.525 16.0825 90.2302 15.7497C89.9353 15.417 89.7059 15.0137 89.542 14.5398C89.3819 14.0661 89.3018 13.5307 89.3018 12.934V12.5C89.3018 11.9032 89.3819 11.3696 89.542 10.8995C89.7023 10.4257 89.928 10.0224 90.2192 9.68962C90.5142 9.35326 90.8618 9.09827 91.2623 8.92466C91.6663 8.74742 92.1124 8.65881 92.6002 8.65881C93.0918 8.65881 93.5396 8.74742 93.9437 8.92466C94.3478 9.09827 94.6955 9.35326 94.9867 9.68962C95.278 10.0224 95.5019 10.4257 95.6584 10.8995C95.8186 11.3696 95.8987 11.9032 95.8987 12.5ZM94.5279 12.934V12.4891C94.5279 12.0478 94.4843 11.6591 94.397 11.3226C94.3132 10.9827 94.1876 10.6987 94.0201 10.4709C93.8563 10.2394 93.6542 10.0658 93.4139 9.95005C93.1736 9.83069 92.9024 9.77101 92.6002 9.77101C92.298 9.77101 92.0286 9.83069 91.7921 9.95005C91.5554 10.0658 91.3533 10.2394 91.1859 10.4709C91.022 10.6987 90.8964 10.9827 90.809 11.3226C90.7216 11.6591 90.678 12.0478 90.678 12.4891V12.934C90.678 13.3753 90.7216 13.7658 90.809 14.1058C90.8964 14.4458 91.0238 14.7334 91.1912 14.9685C91.3624 15.2 91.5662 15.3754 91.8029 15.4947C92.0396 15.6105 92.309 15.6684 92.6112 15.6684C92.917 15.6684 93.1882 15.6105 93.4248 15.4947C93.6615 15.3754 93.8617 15.2 94.0255 14.9685C94.1894 14.7334 94.3132 14.4458 94.397 14.1058C94.4843 13.7658 94.5279 13.3753 94.5279 12.934ZM103.801 8.76731V16.6666H102.43L98.8638 11.008V16.6666H97.4931V8.76731H98.8638L102.441 14.4368V8.76731H103.801Z" fill="black"/>
</g>
<defs>
<clipPath id="clip0_14169_66720">
<rect width="170" height="50" fill="white"/>
</clipPath>
</defs>
</svg>
