<svg width="75" height="15" viewBox="0 0 75 15" fill="none" xmlns="http://www.w3.org/2000/svg">
<path fill-rule="evenodd" clip-rule="evenodd" d="M51.3697 4.80514L48.8658 4.80514V14.6199H51.3697V4.80514ZM48.9493 0.449843C48.6572 0.736106 48.5111 1.0769 48.5111 1.47221C48.5111 1.86753 48.6572 2.21513 48.9493 2.51503C49.2553 2.80129 49.6378 2.94442 50.0969 2.94442C50.5559 2.94442 50.9385 2.80811 51.2445 2.53548C51.5645 2.24921 51.7244 1.89479 51.7244 1.47221C51.7244 1.04963 51.5645 0.702027 51.2445 0.429396C50.9385 0.143132 50.5559 0 50.0969 0C49.6378 0 49.2553 0.149948 48.9493 0.449843ZM1.22313 0.143132C0.547613 0.143132 0 0.690745 0 1.36626L0 14.6199H2.62908L2.62908 8.6288H4.50699C5.28598 8.6288 6.03019 8.57427 6.73962 8.46522C7.46297 8.35617 8.0959 8.15169 8.63841 7.8518C9.18091 7.53827 9.61214 7.10206 9.93208 6.54317C10.252 5.98427 10.3721 5.24816 10.3721 4.33485C10.3721 3.53058 10.259 2.86263 9.95295 2.331C9.66082 1.78574 9.26438 1.35634 8.7636 1.04282C8.26282 0.715658 7.67858 0.483922 7.01088 0.347606C6.35709 0.21129 5.67547 0.143132 4.96604 0.143132L1.22313 0.143132ZM5.38335 6.37959C4.97995 6.40685 4.59046 6.42048 4.21487 6.42048H2.62908L2.62908 2.35145L4.50699 2.35145C4.85476 2.35145 5.21643 2.3719 5.59201 2.41279C5.96759 2.45369 6.3084 2.54911 6.61443 2.69906C6.92046 2.83537 7.17085 3.03985 7.3656 3.31248C7.56034 3.57148 7.65772 3.9259 7.65772 4.37574C7.65772 4.86648 7.54643 5.24816 7.32387 5.5208C7.11521 5.79343 6.837 5.9979 6.48924 6.13422C6.15539 6.27053 5.78676 6.35232 5.38335 6.37959ZM14.791 4.80514H12.2871L12.2871 14.6199L14.791 14.6199L14.791 9.36491C14.791 9.22859 14.8188 9.02412 14.8745 8.75148C14.944 8.47885 15.0692 8.20622 15.2501 7.93359C15.4448 7.66096 15.7161 7.4224 16.0638 7.21793C16.4255 6.99982 16.8985 6.89077 17.4827 6.89077C17.6774 6.89077 17.8722 6.91122 18.0669 6.95211C18.3871 6.99394 18.6929 6.75935 18.6929 6.43649V5.17334C18.6929 4.89589 18.507 4.64933 18.2339 4.60066C18.0948 4.5734 17.9487 4.55977 17.7957 4.55977C17.128 4.55977 16.5368 4.71653 16.0221 5.03006C15.5074 5.34358 15.111 5.78661 14.8327 6.35914H14.791V4.80514ZM26.5571 13.2704H26.4945C26.1328 13.8293 25.6738 14.2382 25.1174 14.4972C24.561 14.7426 23.9489 14.8653 23.2812 14.8653C22.8222 14.8653 22.3701 14.8039 21.9249 14.6812C21.4937 14.5585 21.1042 14.3745 20.7565 14.1291C20.4226 13.8838 20.1513 13.5771 19.9427 13.209C19.734 12.841 19.6297 12.4116 19.6297 11.9208C19.6297 11.3892 19.7271 10.9394 19.9218 10.5713C20.1166 10.1896 20.3739 9.87609 20.6939 9.63072C21.0277 9.37172 21.4102 9.16725 21.8415 9.0173C22.2727 8.86735 22.7178 8.7583 23.1769 8.69014C23.6498 8.60835 24.1228 8.56064 24.5957 8.54701C25.0687 8.51975 25.5138 8.50611 25.9311 8.50611H26.5571V8.2403C26.5571 7.62688 26.3415 7.17022 25.9103 6.87032C25.4791 6.5568 24.9296 6.40003 24.2619 6.40003C23.7333 6.40003 23.2395 6.49546 22.7804 6.6863C22.6183 6.74888 22.464 6.81996 22.3175 6.89954C21.8768 7.13898 21.3083 7.1453 20.9501 6.79423C20.5789 6.43056 20.5707 5.82441 20.9994 5.53074C21.3734 5.27449 21.7793 5.07352 22.2171 4.92782C22.9682 4.68245 23.7402 4.55977 24.5331 4.55977C25.2426 4.55977 25.8407 4.64156 26.3276 4.80514C26.8145 4.95508 27.2179 5.15274 27.5378 5.39811C27.8577 5.64348 28.1012 5.92974 28.2681 6.2569C28.4489 6.57043 28.5741 6.89077 28.6437 7.21793C28.7272 7.54509 28.7758 7.86543 28.7897 8.17896C28.8037 8.47885 28.8106 8.74467 28.8106 8.97641V14.6199H26.5571V13.2704ZM26.4111 10.2237H25.8894C25.5417 10.2237 25.1522 10.2373 24.7209 10.2646C24.2897 10.2919 23.8793 10.36 23.4899 10.4691C23.1143 10.5645 22.7943 10.7144 22.53 10.9189C22.2657 11.1097 22.1336 11.3824 22.1336 11.7368C22.1336 11.9685 22.1823 12.1662 22.2796 12.3298C22.3909 12.4797 22.53 12.6092 22.697 12.7183C22.8639 12.8273 23.0517 12.9091 23.2603 12.9636C23.469 13.0045 23.6777 13.025 23.8863 13.025C24.7488 13.025 25.3817 12.8273 25.7851 12.432C26.2024 12.0231 26.4111 11.471 26.4111 10.7758V10.2237ZM37.0717 7.0339C37.6356 7.34624 38.3638 7.38308 38.8242 6.9319L38.8661 6.89087C39.3415 6.42501 39.3649 5.64316 38.7954 5.29864C38.5488 5.14943 38.2872 5.02583 38.0107 4.92782C37.3708 4.68245 36.7309 4.55977 36.091 4.55977C35.3399 4.55977 34.6304 4.68245 33.9627 4.92782C33.295 5.17319 32.7177 5.5208 32.2309 5.97064C31.744 6.42048 31.3545 6.96575 31.0624 7.60643C30.7842 8.23348 30.6451 8.93551 30.6451 9.71251C30.6451 10.4895 30.7842 11.1984 31.0624 11.839C31.3545 12.4661 31.744 13.0045 32.2309 13.4544C32.7177 13.9042 33.295 14.2518 33.9627 14.4972C34.6304 14.7426 35.3399 14.8653 36.091 14.8653C36.3136 14.8653 36.5779 14.838 36.8839 14.7835C37.19 14.7426 37.5099 14.6676 37.8438 14.5585C38.1776 14.4495 38.5045 14.3064 38.8244 14.1291C39.3563 13.8468 39.3682 13.1449 38.9536 12.7081L38.797 12.5431C38.3932 12.1178 37.7027 12.174 37.1761 12.432C36.8422 12.582 36.4805 12.6569 36.091 12.6569C35.632 12.6569 35.2216 12.5751 34.86 12.4116C34.4983 12.248 34.1853 12.0299 33.921 11.7572C33.6706 11.4846 33.4759 11.1711 33.3368 10.8167C33.2116 10.4622 33.149 10.0942 33.149 9.71251C33.149 9.33083 33.2116 8.96277 33.3368 8.60835C33.4759 8.25393 33.6706 7.9404 33.921 7.66777C34.1853 7.39514 34.4983 7.17703 34.86 7.01346C35.2216 6.84988 35.632 6.76809 36.091 6.76809C36.4249 6.76809 36.7518 6.85669 37.0717 7.0339ZM41.5113 6.89077V4.80514V3.18608C41.5113 2.51056 42.0589 1.96295 42.7344 1.96295H44.0152V4.80514H46.7695V6.89077H44.0152V11.1847C44.0152 11.6755 44.1056 12.064 44.2864 12.3502C44.4812 12.6365 44.8568 12.7796 45.4132 12.7796C45.6358 12.7796 45.8792 12.7592 46.1435 12.7183C46.4078 12.6637 46.6165 12.582 46.7695 12.4729V14.5381C46.5052 14.6608 46.1783 14.7426 45.7888 14.7835C45.4132 14.838 45.0793 14.8653 44.7872 14.8653C44.1195 14.8653 43.5701 14.7903 43.1388 14.6403C42.7215 14.504 42.3877 14.2927 42.1373 14.0065C41.9008 13.7066 41.7339 13.3385 41.6365 12.9023C41.553 12.4661 41.5113 11.9617 41.5113 11.3892V6.89077ZM61.7844 6.95519C61.381 7.46324 60.6447 7.49162 60.0844 7.16478C60.0179 7.126 59.9534 7.09034 59.8882 7.05433L59.8881 7.05425L59.8513 7.0339C59.5313 6.85669 59.2045 6.76809 58.8706 6.76809C58.4116 6.76809 58.0012 6.84988 57.6395 7.01346C57.2779 7.17703 56.9649 7.39514 56.7006 7.66777C56.4502 7.9404 56.2554 8.25393 56.1163 8.60835C55.9911 8.96277 55.9285 9.33083 55.9285 9.71251C55.9285 10.0942 55.9911 10.4622 56.1163 10.8167C56.2554 11.1711 56.4502 11.4846 56.7006 11.7572C56.9649 12.0299 57.2779 12.248 57.6395 12.4116C58.0012 12.5751 58.4116 12.6569 58.8706 12.6569C59.2601 12.6569 59.6218 12.582 59.9556 12.432C59.9685 12.4257 59.9823 12.4204 59.9969 12.4158C61.603 11.7251 62.4803 10.3165 63.381 8.87031C64.4003 7.23355 65.4498 5.5485 67.6199 4.80101C68.2668 4.53673 68.9386 4.41339 69.6613 4.41339C72.7174 4.41339 75 6.6509 75 9.68112C75 12.7369 72.6921 15 69.6359 15C67.6647 15 66.141 14.0725 64.2033 11.6839C63.2763 12.9543 61.957 14.2514 60.6075 14.5637C60.2794 14.67 59.9647 14.7432 59.6635 14.7835C59.3575 14.838 59.0932 14.8653 58.8706 14.8653C58.1194 14.8653 57.41 14.7426 56.7423 14.4972C56.0746 14.2518 55.4973 13.9042 55.0104 13.4544C54.5236 13.0045 54.1341 12.4661 53.842 11.839C53.5637 11.1984 53.4246 10.4895 53.4246 9.71251C53.4246 8.93551 53.5637 8.23348 53.842 7.60643C54.1341 6.96575 54.5236 6.42048 55.0104 5.97064C55.4973 5.5208 56.0746 5.17319 56.7423 4.92782C57.41 4.68245 58.1194 4.55977 58.8706 4.55977C59.5105 4.55977 60.1504 4.68245 60.7902 4.92782C61.0812 5.03095 61.3556 5.16242 61.6135 5.32224C62.1762 5.67095 62.1961 6.43675 61.7844 6.95519ZM72.4511 9.66834C72.4511 11.2793 71.2084 12.4684 69.5472 12.4684C68.2664 12.4684 67.3026 11.7908 65.5907 9.69391C67.087 7.68654 68.203 6.89383 69.5598 6.89383C71.2337 6.89383 72.4511 8.0829 72.4511 9.66834Z" fill="#202020"/>
<mask id="mask0_14169_66579" style="mask-type:alpha" maskUnits="userSpaceOnUse" x="58" y="4" width="17" height="11">
<path fill-rule="evenodd" clip-rule="evenodd" d="M67.6171 4.80203C65.4492 5.55011 64.4003 7.23426 63.3815 8.87017C62.4735 10.3281 61.5893 11.7477 59.9583 12.4323C58.8953 13.3698 57.4418 14.9235 60.2771 14.6198C61.7392 14.4632 63.2007 13.0583 64.2033 11.6844C66.1409 14.0726 67.6645 15 69.6355 15C72.6917 15 74.9997 12.7369 74.9997 9.68113C74.9997 6.6509 72.7171 4.41339 69.6609 4.41339C68.9373 4.41339 68.2647 4.53706 67.6171 4.80203ZM72.4508 9.66834C72.4508 11.2793 71.208 12.4684 69.5468 12.4684C68.266 12.4684 67.3022 11.7908 65.5903 9.69391C67.0866 7.68655 68.2026 6.89383 69.5595 6.89383C71.2334 6.89383 72.4508 8.08291 72.4508 9.66834Z" fill="white"/>
</mask>
<g mask="url(#mask0_14169_66579)">
<path opacity="0.3" d="M64.1299 11.7852L65.5947 9.6864C66.8055 11.1377 67.6742 11.8813 68.7749 12.4042C69.8756 12.9271 67.0908 14.5491 67.0908 14.5491C66.4744 14.1641 66.0892 13.8662 65.4618 13.2472C64.8344 12.6283 64.649 12.3932 64.1299 11.7852Z" fill="url(#paint0_linear_14169_66579)" fill-opacity="0.5"/>
</g>
<defs>
<linearGradient id="paint0_linear_14169_66579" x1="64.9445" y1="10.6968" x2="67.811" y2="13.3997" gradientUnits="userSpaceOnUse">
<stop stop-opacity="0.7"/>
<stop offset="1" stop-opacity="0"/>
</linearGradient>
</defs>
</svg>
