<svg width="150" height="50" viewBox="0 0 150 50" fill="none" xmlns="http://www.w3.org/2000/svg">
<g clip-path="url(#clip0_14169_66685)">
<path d="M138.055 4.04297e-05H11.9518C11.4921 4.04297e-05 11.038 4.04298e-05 10.5796 0.00254043C10.1958 0.00504043 9.81509 0.0123029 9.42764 0.0184154C8.58593 0.0282927 7.74619 0.102136 6.91573 0.239303C6.08644 0.379456 5.28313 0.643685 4.53296 1.02305C3.78372 1.40563 3.09911 1.90275 2.50397 2.49638C1.90571 3.08834 1.40702 3.77256 1.02706 4.52274C0.646059 5.27143 0.38187 6.07371 0.243619 6.90189C0.104055 7.72902 0.028954 8.56569 0.0189907 9.40439C0.0073581 9.78764 0.00612966 10.1722 0 10.5555V39.4483C0.00612966 39.8364 0.0073581 40.2124 0.0189907 40.6007C0.0289571 41.4393 0.104058 42.2759 0.243619 43.103C0.381488 43.9317 0.645693 44.7344 1.02706 45.4834C1.40685 46.2312 1.90561 46.9126 2.50397 47.5013C3.09685 48.0976 3.7819 48.595 4.53296 48.9747C5.28312 49.355 6.08635 49.6208 6.91573 49.7632C7.74633 49.8992 8.58598 49.9731 9.42764 49.9842C9.81509 49.9927 10.1958 49.9975 10.5796 49.9975C11.038 50 11.4922 50 11.9518 50H138.055C138.505 50 138.963 50 139.414 49.9975C139.796 49.9975 140.187 49.9927 140.569 49.9842C141.409 49.9737 142.247 49.8998 143.076 49.7632C143.908 49.6199 144.715 49.3541 145.468 48.9747C146.219 48.5948 146.903 48.0974 147.495 47.5013C148.092 46.9103 148.592 46.2294 148.977 45.4834C149.355 44.7339 149.617 43.9312 149.753 43.103C149.892 42.2758 149.97 41.4394 149.985 40.6007C149.99 40.2124 149.99 39.8364 149.99 39.4483C150 38.9942 150 38.5425 150 38.081V11.9202C150 11.4624 150 11.0083 149.99 10.5555C149.99 10.1722 149.99 9.78764 149.985 9.40434C149.97 8.56557 149.892 7.72909 149.753 6.90184C149.616 6.07414 149.355 5.27192 148.977 4.52269C148.203 3.01904 146.976 1.79507 145.468 1.02294C144.715 0.6445 143.908 0.380341 143.076 0.23919C142.248 0.101419 141.409 0.0275501 140.569 0.0182404C140.187 0.0121404 139.796 0.00481543 139.414 0.00237793C138.963 -0.00012207 138.505 -0.00012207 138.055 -0.00012207V4.04297e-05Z" fill="black"/>
<path d="M10.5857 48.9062C10.2038 48.9062 9.83106 48.9014 9.45214 48.8929C8.66717 48.8827 7.88403 48.8145 7.10916 48.689C6.38662 48.5649 5.68668 48.3341 5.03242 48.0041C4.38415 47.6769 3.79289 47.2478 3.28126 46.7334C2.76224 46.225 2.33012 45.6353 2.00205 44.9878C1.67035 44.336 1.4408 43.6374 1.32139 42.9163C1.19243 42.1414 1.12266 41.3579 1.11268 40.5725C1.10473 40.3089 1.09433 39.4311 1.09433 39.4311V10.5554C1.09433 10.5554 1.10541 9.69116 1.11274 9.43725C1.1223 8.6531 1.19167 7.87082 1.32024 7.09716C1.43987 6.37406 1.6696 5.67344 2.00147 5.01954C2.32834 4.37243 2.75806 3.78233 3.27396 3.2721C3.78928 2.75703 4.38244 2.32576 5.0318 1.99401C5.68456 1.66512 6.38318 1.43592 7.10425 1.31409C7.88168 1.1873 8.66753 1.11875 9.45522 1.10901L10.5863 1.09375H139.408L140.552 1.10963C141.333 1.11887 142.111 1.18681 142.882 1.31286C143.61 1.43622 144.316 1.66702 144.976 1.99768C146.277 2.66623 147.336 3.72395 148.003 5.02259C148.33 5.67197 148.556 6.36688 148.674 7.08374C148.804 7.86374 148.877 8.65217 148.892 9.44275C148.896 9.79675 148.896 10.177 148.896 10.5554C148.906 11.0242 148.906 11.4703 148.906 11.9202V38.081C148.906 38.5351 148.906 38.9783 148.896 39.425C148.896 39.8315 148.896 40.2039 148.891 40.5871C148.876 41.3636 148.805 42.138 148.677 42.904C148.56 43.6303 148.331 44.3344 148 44.9915C147.669 45.632 147.24 46.2166 146.727 46.7236C146.215 47.2409 145.622 47.6724 144.973 48.0018C144.314 48.3342 143.609 48.5659 142.882 48.689C142.107 48.8152 141.324 48.8834 140.539 48.8929C140.171 48.9014 139.787 48.9062 139.414 48.9062L138.055 48.9087L10.5857 48.9062Z" fill="white"/>
<path d="M31.3336 24.8616C31.3476 23.7767 31.6366 22.7129 32.1737 21.7692C32.7108 20.8256 33.4785 20.0328 34.4054 19.4645C33.8166 18.6259 33.0398 17.9357 32.1366 17.4488C31.2335 16.962 30.229 16.6918 29.2029 16.6598C27.014 16.4307 24.8919 17.9659 23.7764 17.9659C22.6394 17.9659 20.922 16.6825 19.0727 16.7205C17.8765 16.759 16.7107 17.1059 15.6889 17.7273C14.6671 18.3487 13.8241 19.2235 13.2422 20.2664C10.7212 24.6189 12.6016 31.0156 15.0165 34.5338C16.2247 36.2566 17.6368 38.181 19.4845 38.1128C21.2926 38.038 21.9678 36.9631 24.1503 36.9631C26.3125 36.9631 26.9461 38.1128 28.8312 38.0694C30.7714 38.038 31.9937 36.339 33.1596 34.5999C34.0277 33.3723 34.6957 32.0156 35.1389 30.58C34.0117 30.1046 33.0498 29.3088 32.3732 28.292C31.6965 27.2751 31.3349 26.082 31.3336 24.8616Z" fill="black"/>
<path d="M27.7729 14.346C28.8307 13.0796 29.3519 11.4519 29.2257 9.80859C27.6096 9.97786 26.1167 10.7481 25.0446 11.9659C24.5204 12.5608 24.1189 13.2529 23.8631 14.0026C23.6073 14.7523 23.5021 15.545 23.5537 16.3352C24.3621 16.3435 25.1618 16.1688 25.8926 15.8242C26.6234 15.4797 27.2663 14.9742 27.7729 14.346Z" fill="black"/>
<path d="M53.0257 33.9245H47.0923L45.6674 38.12H43.1543L48.7743 22.5975H51.3853L57.0053 38.12H54.4493L53.0257 33.9245ZM47.7068 31.9884H52.41L50.0915 25.1793H50.0266L47.7068 31.9884Z" fill="black"/>
<path d="M69.1426 32.4621C69.1426 35.9789 67.255 38.2384 64.4064 38.2384C63.6848 38.2761 62.9672 38.1103 62.3357 37.7601C61.7042 37.41 61.1843 36.8895 60.8356 36.2584H60.7817V41.8639H58.4522V26.8029H60.7071V28.6852H60.7499C61.1146 28.0571 61.6433 27.5394 62.2796 27.1871C62.9159 26.8348 63.6361 26.6611 64.3635 26.6845C67.2439 26.6845 69.1426 28.955 69.1426 32.4621ZM66.7482 32.4621C66.7482 30.1708 65.5608 28.6644 63.749 28.6644C61.9692 28.6644 60.772 30.2025 60.772 32.4621C60.772 34.7423 61.9692 36.2694 63.749 36.2694C65.5608 36.2694 66.7481 34.7741 66.7481 32.4621H66.7482Z" fill="black"/>
<path d="M81.6342 32.4621C81.6342 35.9789 79.746 38.2384 76.8974 38.2384C76.1759 38.2761 75.4582 38.1103 74.8267 37.7601C74.1952 37.41 73.6753 36.8895 73.3267 36.2584H73.2728V41.8639H70.9432V26.8029H73.1981V28.6852H73.2409C73.6056 28.0571 74.1343 27.5394 74.7706 27.1871C75.4069 26.8348 76.1271 26.6611 76.8546 26.6845C79.735 26.6845 81.6342 28.955 81.6342 32.4621ZM79.2392 32.4621C79.2392 30.1708 78.0518 28.6644 76.2401 28.6644C74.4602 28.6644 73.263 30.2025 73.263 32.4621C73.263 34.7423 74.4602 36.2694 76.2401 36.2694C78.0518 36.2694 79.2392 34.7741 79.2392 32.4621Z" fill="black"/>
<path d="M89.8885 33.7951C90.0611 35.3344 91.5607 36.3451 93.6099 36.3451C95.5734 36.3451 96.986 35.3344 96.986 33.9464C96.986 32.7416 96.134 32.0202 94.1167 31.5258L92.0993 31.0411C89.241 30.3527 87.914 29.0197 87.914 26.8566C87.914 24.1783 90.2545 22.3387 93.5768 22.3387C96.8673 22.3387 99.1221 24.1783 99.198 26.8566H96.8465C96.7057 25.3075 95.4216 24.3724 93.545 24.3724C91.6684 24.3724 90.3843 25.3185 90.3843 26.6954C90.3843 27.7929 91.2044 28.4386 93.2108 28.9329L94.9258 29.3529C98.1195 30.106 99.4453 31.3854 99.4453 33.6558C99.4453 36.5599 97.1268 38.3787 93.4372 38.3787C89.9852 38.3787 87.6544 36.6026 87.5038 33.795L89.8885 33.7951Z" fill="black"/>
<path d="M104.475 24.1248V26.803H106.633V28.6426H104.475V34.8816C104.475 35.8508 104.907 36.3025 105.856 36.3025C106.112 36.298 106.368 36.2801 106.622 36.2487V38.0774C106.196 38.1568 105.762 38.1928 105.328 38.1848C103.031 38.1848 102.135 37.3242 102.135 35.1294V28.6426H100.485V26.803H102.135V24.1248H104.475Z" fill="black"/>
<path d="M107.882 32.4622C107.882 28.9014 109.985 26.6638 113.265 26.6638C116.555 26.6638 118.648 28.9013 118.648 32.4622C118.648 36.0327 116.566 38.2605 113.265 38.2605C109.964 38.2605 107.882 36.0327 107.882 32.4622ZM116.275 32.4622C116.275 30.0195 115.152 28.5779 113.265 28.5779C111.377 28.5779 110.254 30.0305 110.254 32.4622C110.254 34.9145 111.377 36.3452 113.265 36.3452C115.152 36.3452 116.275 34.9145 116.275 32.4622H116.275Z" fill="black"/>
<path d="M120.569 26.8029H122.791V28.7291H122.845C122.995 28.1275 123.348 27.5959 123.845 27.2235C124.343 26.8512 124.953 26.6608 125.574 26.6845C125.843 26.6835 126.111 26.7126 126.373 26.7711V28.944C126.034 28.8407 125.68 28.7933 125.326 28.8036C124.987 28.7899 124.65 28.8494 124.337 28.978C124.024 29.1066 123.742 29.3013 123.512 29.5487C123.281 29.796 123.107 30.0902 123.001 30.4111C122.895 30.7319 122.86 31.0718 122.898 31.4074V38.12H120.569L120.569 26.8029Z" fill="black"/>
<path d="M137.113 34.7961C136.8 36.8506 134.793 38.2605 132.226 38.2605C128.925 38.2605 126.876 36.0547 126.876 32.5159C126.876 28.9661 128.936 26.6638 132.128 26.6638C135.268 26.6638 137.243 28.8147 137.243 32.2461V33.042H129.227V33.1824C129.19 33.5989 129.242 34.0185 129.381 34.4133C129.519 34.8081 129.739 35.169 130.028 35.4722C130.317 35.7754 130.667 36.0139 131.055 36.1717C131.444 36.3296 131.861 36.4033 132.28 36.3879C132.831 36.4394 133.383 36.3122 133.855 36.0254C134.327 35.7386 134.694 35.3075 134.901 34.7961L137.113 34.7961ZM129.238 31.4185H134.912C134.933 31.044 134.876 30.6692 134.745 30.3177C134.614 29.9662 134.411 29.6455 134.15 29.3758C133.888 29.1061 133.574 28.8932 133.226 28.7504C132.878 28.6076 132.504 28.5381 132.128 28.5461C131.749 28.5439 131.373 28.6166 131.022 28.76C130.671 28.9034 130.352 29.1148 130.083 29.3818C129.814 29.6488 129.601 29.9663 129.456 30.3159C129.311 30.6654 129.237 31.0402 129.238 31.4185V31.4185Z" fill="black"/>
<path d="M47.4155 10.9137C47.9039 10.8788 48.3939 10.9524 48.8504 11.1292C49.3068 11.3059 49.7182 11.5815 50.0548 11.9361C50.3915 12.2906 50.6451 12.7152 50.7973 13.1793C50.9494 13.6434 50.9964 14.1354 50.9349 14.6198C50.9349 17.0026 49.6434 18.3723 47.4155 18.3723H44.7138V10.9137H47.4155ZM45.8755 17.3175H47.2857C47.6347 17.3383 47.9839 17.2812 48.308 17.1505C48.6321 17.0197 48.9229 16.8185 49.1592 16.5616C49.3954 16.3046 49.5713 15.9983 49.6739 15.6651C49.7765 15.3318 49.8033 14.9799 49.7523 14.635C49.7996 14.2914 49.7701 13.9417 49.6659 13.6109C49.5617 13.2801 49.3854 12.9763 49.1497 12.7214C48.914 12.4665 48.6246 12.2667 48.3023 12.1364C47.9801 12.0061 47.6329 11.9485 47.2857 11.9677H45.8755V17.3175Z" fill="black"/>
<path d="M52.2471 15.5555C52.2116 15.1856 52.2541 14.8124 52.3717 14.4598C52.4893 14.1072 52.6796 13.783 52.9302 13.508C53.1808 13.2331 53.4863 13.0134 53.8271 12.863C54.1678 12.7127 54.5364 12.635 54.909 12.635C55.2816 12.635 55.6501 12.7127 55.9909 12.863C56.3317 13.0134 56.6372 13.2331 56.8878 13.508C57.1384 13.783 57.3287 14.1072 57.4463 14.4598C57.5639 14.8124 57.6063 15.1856 57.5709 15.5555C57.607 15.9258 57.5651 16.2995 57.4478 16.6526C57.3305 17.0058 57.1403 17.3306 56.8896 17.6061C56.639 17.8816 56.3332 18.1018 55.9921 18.2524C55.651 18.4031 55.2821 18.4809 54.909 18.4809C54.5359 18.4809 54.167 18.4031 53.8259 18.2524C53.4848 18.1018 53.179 17.8816 52.9283 17.6061C52.6776 17.3306 52.4875 17.0058 52.3702 16.6526C52.2529 16.2995 52.211 15.9258 52.2471 15.5555ZM56.4251 15.5555C56.4251 14.3354 55.8754 13.6219 54.9108 13.6219C53.9425 13.6219 53.3978 14.3354 53.3978 15.5555C53.3978 16.7854 53.9426 17.4934 54.9108 17.4934C55.8755 17.4933 56.4251 16.7805 56.4251 15.5555H56.4251Z" fill="black"/>
<path d="M64.6476 18.3722H63.492L62.3254 14.2267H62.2373L61.0756 18.3722H59.931L58.3751 12.7435H59.505L60.5161 17.0385H60.5994L61.7599 12.7435H62.8285L63.989 17.0385H64.0771L65.0834 12.7435H66.1973L64.6476 18.3722Z" fill="black"/>
<path d="M67.5059 12.7436H68.5782V13.6377H68.6615C68.8027 13.3166 69.0409 13.0474 69.3428 12.8676C69.6447 12.6879 69.9954 12.6065 70.3459 12.6349C70.6205 12.6143 70.8963 12.6556 71.1528 12.7558C71.4092 12.8559 71.6398 13.0123 71.8274 13.2133C72.0151 13.4144 72.1549 13.6549 72.2367 13.9172C72.3184 14.1795 72.3399 14.4567 72.2996 14.7284V18.3722H71.1856V15.0074C71.1856 14.1028 70.7915 13.653 69.9676 13.653C69.7812 13.6444 69.595 13.676 69.4219 13.7458C69.2489 13.8156 69.093 13.9219 68.965 14.0573C68.837 14.1928 68.7399 14.3543 68.6803 14.5307C68.6207 14.7071 68.6001 14.8943 68.6198 15.0794V18.3722H67.5059L67.5059 12.7436Z" fill="black"/>
<path d="M74.0746 10.5463H75.1885V18.3722H74.0746V10.5463Z" fill="black"/>
<path d="M76.7371 15.5555C76.7016 15.1855 76.7441 14.8123 76.8617 14.4597C76.9794 14.1071 77.1697 13.7829 77.4203 13.5079C77.671 13.233 77.9765 13.0132 78.3173 12.8629C78.6581 12.7126 79.0266 12.6349 79.3993 12.6349C79.7719 12.6349 80.1405 12.7126 80.4812 12.8629C80.822 13.0132 81.1275 13.233 81.3782 13.5079C81.6289 13.7829 81.8191 14.1071 81.9368 14.4597C82.0544 14.8123 82.0969 15.1855 82.0614 15.5555C82.0975 15.9258 82.0556 16.2995 81.9382 16.6526C81.8209 17.0058 81.6307 17.3306 81.38 17.6061C81.1293 17.8816 80.8235 18.1017 80.4824 18.2524C80.1413 18.4031 79.7723 18.4809 79.3993 18.4809C79.0262 18.4809 78.6572 18.4031 78.3161 18.2524C77.975 18.1017 77.6692 17.8816 77.4185 17.6061C77.1678 17.3306 76.9776 17.0058 76.8603 16.6526C76.7429 16.2995 76.701 15.9258 76.7371 15.5555ZM80.915 15.5555C80.915 14.3354 80.3654 13.6219 79.4008 13.6219C78.4325 13.6219 77.8878 14.3354 77.8878 15.5555C77.8878 16.7853 78.4325 17.4933 79.4008 17.4933C80.3654 17.4933 80.915 16.7804 80.915 15.5555H80.915Z" fill="black"/>
<path d="M83.2341 16.7804C83.2341 15.7672 83.9906 15.1831 85.3335 15.1001L86.8625 15.0122V14.5264C86.8625 13.9319 86.4683 13.5962 85.7069 13.5962C85.085 13.5962 84.6541 13.8239 84.5305 14.2218H83.452C83.5659 13.255 84.4779 12.6349 85.7583 12.6349C87.1734 12.6349 87.9715 13.3374 87.9715 14.5264V18.3722H86.8992V17.5812H86.811C86.6321 17.8649 86.3809 18.0962 86.0831 18.2515C85.7852 18.4068 85.4514 18.4804 85.1156 18.4649C84.8787 18.4895 84.6392 18.4643 84.4126 18.3909C84.186 18.3175 83.9773 18.1976 83.8001 18.0389C83.6228 17.8802 83.4809 17.6862 83.3834 17.4695C83.2859 17.2527 83.2351 17.018 83.2341 16.7804ZM86.8625 16.2994V15.8289L85.4841 15.9167C84.7068 15.9686 84.3542 16.2323 84.3542 16.7285C84.3542 17.2351 84.7949 17.5299 85.4009 17.5299C85.5784 17.5478 85.7578 17.5299 85.9283 17.4773C86.0988 17.4247 86.2569 17.3384 86.3932 17.2236C86.5296 17.1088 86.6414 16.9678 86.722 16.8091C86.8026 16.6503 86.8504 16.477 86.8625 16.2994Z" fill="black"/>
<path d="M89.4356 15.5554C89.4356 13.7769 90.3525 12.6502 91.7786 12.6502C92.1313 12.634 92.4814 12.7182 92.7879 12.8931C93.0944 13.0679 93.3447 13.3262 93.5095 13.6377H93.5927V10.5463H94.7067V18.3722H93.6392V17.4829H93.5511C93.3736 17.7923 93.1146 18.0473 92.8022 18.2204C92.4897 18.3935 92.1358 18.4781 91.7786 18.465C90.3427 18.465 89.4356 17.3383 89.4356 15.5554ZM90.5863 15.5554C90.5863 16.7493 91.1506 17.4677 92.0944 17.4677C93.0333 17.4677 93.6136 16.7389 93.6136 15.5603C93.6136 14.3872 93.0272 13.6481 92.0944 13.6481C91.1567 13.6481 90.5863 14.3714 90.5863 15.5554H90.5863Z" fill="black"/>
<path d="M99.3155 15.5555C99.2801 15.1856 99.3225 14.8124 99.4401 14.4598C99.5577 14.1072 99.748 13.783 99.9986 13.508C100.249 13.2331 100.555 13.0134 100.895 12.863C101.236 12.7127 101.605 12.635 101.977 12.635C102.35 12.635 102.719 12.7127 103.059 12.863C103.4 13.0134 103.706 13.2331 103.956 13.508C104.207 13.783 104.397 14.1072 104.515 14.4598C104.632 14.8124 104.675 15.1856 104.639 15.5555C104.675 15.9258 104.634 16.2995 104.516 16.6526C104.399 17.0058 104.209 17.3306 103.958 17.6061C103.707 17.8816 103.402 18.1018 103.061 18.2524C102.719 18.4031 102.35 18.4809 101.977 18.4809C101.604 18.4809 101.235 18.4031 100.894 18.2524C100.553 18.1018 100.247 17.8816 99.9967 17.6061C99.7461 17.3306 99.5559 17.0058 99.4386 16.6526C99.3213 16.2995 99.2794 15.9258 99.3155 15.5555ZM103.493 15.5555C103.493 14.3354 102.944 13.6219 101.979 13.6219C101.011 13.6219 100.466 14.3354 100.466 15.5555C100.466 16.7854 101.011 17.4934 101.979 17.4934C102.944 17.4933 103.493 16.7805 103.493 15.5555Z" fill="black"/>
<path d="M106.134 12.7436H107.206V13.6377H107.29C107.431 13.3166 107.669 13.0474 107.971 12.8676C108.273 12.6879 108.623 12.6065 108.974 12.6349C109.249 12.6143 109.524 12.6556 109.781 12.7558C110.037 12.8559 110.268 13.0123 110.455 13.2133C110.643 13.4144 110.783 13.6549 110.865 13.9172C110.946 14.1795 110.968 14.4567 110.928 14.7284V18.3722H109.814V15.0074C109.814 14.1028 109.42 13.653 108.596 13.653C108.409 13.6444 108.223 13.676 108.05 13.7458C107.877 13.8156 107.721 13.9219 107.593 14.0573C107.465 14.1928 107.368 14.3543 107.308 14.5307C107.249 14.7071 107.228 14.8943 107.248 15.0794V18.3722H106.134V12.7436Z" fill="black"/>
<path d="M117.222 11.3422V12.7692H118.445V13.7048H117.222V16.5991C117.222 17.1887 117.466 17.4469 118.02 17.4469C118.162 17.4464 118.304 17.4379 118.445 17.4213V18.3466C118.245 18.3822 118.042 18.4012 117.839 18.4033C116.6 18.4033 116.107 17.9687 116.107 16.8835V13.7048H115.211V12.7691H116.107V11.3422H117.222Z" fill="black"/>
<path d="M119.967 10.5463H121.071V13.6481H121.159C121.307 13.3239 121.552 13.0532 121.86 12.8728C122.168 12.6923 122.524 12.611 122.88 12.6398C123.153 12.625 123.426 12.6704 123.68 12.773C123.933 12.8755 124.161 13.0326 124.347 13.2331C124.533 13.4335 124.672 13.6723 124.754 13.9325C124.836 14.1926 124.86 14.4677 124.824 14.7382V18.3722H123.709V15.0122C123.709 14.1132 123.289 13.6578 122.502 13.6578C122.31 13.6422 122.118 13.6684 121.938 13.7347C121.757 13.801 121.594 13.9058 121.458 14.0418C121.323 14.1777 121.219 14.3415 121.154 14.5216C121.089 14.7018 121.064 14.894 121.081 15.0848V18.3722H119.967L119.967 10.5463Z" fill="black"/>
<path d="M131.319 16.8524C131.168 17.3668 130.84 17.8118 130.393 18.1095C129.946 18.4072 129.408 18.5386 128.873 18.4808C128.502 18.4906 128.132 18.4196 127.79 18.2726C127.449 18.1257 127.143 17.9065 126.895 17.63C126.647 17.3536 126.462 17.0267 126.354 16.6719C126.245 16.3171 126.215 15.943 126.266 15.5755C126.216 15.2069 126.247 14.832 126.355 14.4762C126.464 14.1203 126.648 13.7919 126.894 13.513C127.141 13.2342 127.445 13.0115 127.786 12.86C128.126 12.7085 128.496 12.6317 128.868 12.6349C130.439 12.6349 131.387 13.7049 131.387 15.4724V15.86H127.401V15.9222C127.383 16.1288 127.409 16.3367 127.477 16.5326C127.545 16.7286 127.653 16.9082 127.795 17.06C127.936 17.2118 128.108 17.3325 128.299 17.4142C128.49 17.496 128.696 17.537 128.904 17.5347C129.17 17.5666 129.44 17.5188 129.68 17.3973C129.919 17.2758 130.116 17.0861 130.247 16.8523L131.319 16.8524ZM127.401 15.0384H130.252C130.266 14.8495 130.24 14.6598 130.176 14.4814C130.112 14.303 130.012 14.1399 129.881 14.0025C129.75 13.8652 129.592 13.7567 129.416 13.684C129.241 13.6113 129.052 13.576 128.862 13.5803C128.67 13.5779 128.478 13.614 128.3 13.6864C128.122 13.7588 127.959 13.8661 127.823 14.002C127.687 14.1379 127.579 14.2996 127.507 14.4776C127.434 14.6556 127.398 14.8463 127.401 15.0384H127.401Z" fill="black"/>
</g>
<defs>
<clipPath id="clip0_14169_66685">
<rect width="150" height="50" fill="white"/>
</clipPath>
</defs>
</svg>
