<svg width="1686" height="552" viewBox="0 0 1686 552" fill="none" xmlns="http://www.w3.org/2000/svg">
<g opacity="0.2" clip-path="url(#clip0_14447_69877)">
<circle cx="1143.5" cy="213.5" r="26.25" stroke="white" stroke-width="2.5"/>
<path fill-rule="evenodd" clip-rule="evenodd" d="M1141 197.75C1141.69 197.75 1142.25 198.244 1142.25 198.854L1142.25 228.896C1142.25 229.506 1141.69 230 1141 230C1140.31 230 1139.75 229.506 1139.75 228.896L1139.75 198.854C1139.75 198.244 1140.31 197.75 1141 197.75ZM1130.25 203.272C1130.25 202.662 1129.69 202.168 1129 202.168C1128.31 202.168 1127.75 202.662 1127.75 203.272V224.478C1127.75 225.088 1128.31 225.582 1129 225.582C1129.69 225.582 1130.25 225.088 1130.25 224.478V203.272ZM1126.25 209.457C1126.25 208.847 1125.69 208.353 1125 208.353C1124.31 208.353 1123.75 208.847 1123.75 209.457V218.293C1123.75 218.903 1124.31 219.397 1125 219.397C1125.69 219.397 1126.25 218.903 1126.25 218.293L1126.25 209.457ZM1133 205.702C1133.69 205.702 1134.25 206.197 1134.25 206.807L1134.25 220.943C1134.25 221.553 1133.69 222.048 1133 222.048C1132.31 222.048 1131.75 221.553 1131.75 220.943L1131.75 206.807C1131.75 206.197 1132.31 205.702 1133 205.702ZM1138.25 203.272C1138.25 202.662 1137.69 202.168 1137 202.168C1136.31 202.168 1135.75 202.662 1135.75 203.272V224.478C1135.75 225.088 1136.31 225.582 1137 225.582C1137.69 225.582 1138.25 225.088 1138.25 224.478V203.272ZM1146.25 203.272C1146.25 202.662 1145.69 202.168 1145 202.168C1144.31 202.168 1143.75 202.662 1143.75 203.272V224.478C1143.75 225.088 1144.31 225.582 1145 225.582C1145.69 225.582 1146.25 225.088 1146.25 224.478V203.272ZM1149 197.75C1149.69 197.75 1150.25 198.244 1150.25 198.854L1150.25 228.896C1150.25 229.506 1149.69 230 1149 230C1148.31 230 1147.75 229.506 1147.75 228.896L1147.75 198.854C1147.75 198.244 1148.31 197.75 1149 197.75ZM1158.25 203.272C1158.25 202.662 1157.69 202.168 1157 202.168C1156.31 202.168 1155.75 202.662 1155.75 203.272V224.478C1155.75 225.088 1156.31 225.582 1157 225.582C1157.69 225.582 1158.25 225.088 1158.25 224.478V203.272ZM1161 209.236C1161.69 209.236 1162.25 209.731 1162.25 210.341V217.409C1162.25 218.019 1161.69 218.514 1161 218.514C1160.31 218.514 1159.75 218.019 1159.75 217.409V210.341C1159.75 209.731 1160.31 209.236 1161 209.236ZM1154.25 206.807C1154.25 206.197 1153.69 205.702 1153 205.702C1152.31 205.702 1151.75 206.197 1151.75 206.807V220.943C1151.75 221.553 1152.31 222.048 1153 222.048C1153.69 222.048 1154.25 221.553 1154.25 220.943V206.807Z" fill="white"/>
</g>
<g opacity="0.2" clip-path="url(#clip1_14447_69877)">
<circle cx="542.5" cy="213.5" r="26.25" stroke="white" stroke-width="2.5"/>
<path fill-rule="evenodd" clip-rule="evenodd" d="M542.5 233.5C548.575 233.5 553.5 228.575 553.5 222.5C553.5 216.425 548.575 211.5 542.5 211.5C536.425 211.5 531.5 216.425 531.5 222.5C531.5 228.575 536.425 233.5 542.5 233.5ZM560.5 215.5C560.5 220.942 558.085 225.821 554.268 229.121C555.371 227.165 556 224.906 556 222.5C556 215.044 549.956 209 542.5 209C535.044 209 529 215.044 529 222.5C529 224.906 529.629 227.165 530.732 229.121C526.915 225.821 524.5 220.942 524.5 215.5C524.5 205.559 532.559 197.5 542.5 197.5C552.441 197.5 560.5 205.559 560.5 215.5ZM542.5 236C553.822 236 563 226.822 563 215.5C563 204.178 553.822 195 542.5 195C531.178 195 522 204.178 522 215.5C522 226.822 531.178 236 542.5 236Z" fill="white"/>
</g>
<g opacity="0.4" clip-path="url(#clip2_14447_69877)">
<circle cx="1298.5" cy="116.5" r="26.25" stroke="white" stroke-width="2.5"/>
<path d="M1289 110C1289 110 1292 112.471 1292 116C1292 119.529 1289 122 1289 122" stroke="white" stroke-width="2.5" stroke-linecap="round"/>
<path d="M1296 108C1296 108 1299 111.294 1299 116C1299 120.706 1296 124 1296 124" stroke="white" stroke-width="2.5" stroke-linecap="round"/>
<path d="M1304 105C1304 105 1307 109.529 1307 116C1307 122.471 1304 127 1304 127" stroke="white" stroke-width="2.5" stroke-linecap="round"/>
</g>
<g opacity="0.4">
<g clip-path="url(#clip3_14447_69877)">
<circle cx="387.5" cy="116.5" r="26.25" stroke="white" stroke-width="2.5"/>
<path fill-rule="evenodd" clip-rule="evenodd" d="M377.602 116.98C377.129 118.467 377.482 120.159 378.661 121.339C379.841 122.518 381.533 122.871 383.02 122.398C383.173 122.349 383.324 122.292 383.471 122.226C383.529 122.377 383.595 122.524 383.669 122.667C384.386 124.053 385.832 125 387.5 125C389.168 125 390.614 124.053 391.331 122.667C391.405 122.524 391.471 122.377 391.529 122.226C391.676 122.292 391.827 122.349 391.98 122.398C393.467 122.871 395.159 122.518 396.339 121.339C397.518 120.159 397.871 118.467 397.398 116.98C397.349 116.827 397.292 116.676 397.226 116.529C397.377 116.471 397.524 116.405 397.667 116.331C399.053 115.614 400 114.168 400 112.5C400 110.832 399.053 109.386 397.667 108.669C397.524 108.595 397.377 108.529 397.226 108.471C397.292 108.324 397.349 108.173 397.398 108.02C397.871 106.533 397.518 104.841 396.339 103.661C395.16 102.482 393.467 102.129 391.98 102.602C391.827 102.651 391.676 102.708 391.529 102.774C391.471 102.623 391.405 102.476 391.331 102.333C390.614 100.947 389.168 100 387.5 100C385.832 100 384.386 100.947 383.669 102.333C383.595 102.476 383.529 102.623 383.471 102.774C383.324 102.708 383.173 102.651 383.02 102.602C381.533 102.129 379.841 102.482 378.661 103.661C377.482 104.84 377.129 106.533 377.602 108.02C377.651 108.173 377.708 108.324 377.774 108.471C377.623 108.529 377.476 108.595 377.333 108.669C375.947 109.386 375 110.832 375 112.5C375 114.168 375.947 115.614 377.333 116.331C377.476 116.405 377.623 116.471 377.774 116.529C377.708 116.676 377.651 116.827 377.602 116.98ZM376.893 123.107C378.373 124.586 380.361 125.241 382.291 125.076C383.336 126.317 384.817 127.18 386.5 127.427V138H389V127.334C390.476 127.003 391.769 126.192 392.709 125.076C394.639 125.241 396.627 124.586 398.107 123.107C399.586 121.627 400.241 119.639 400.076 117.709C401.557 116.461 402.5 114.592 402.5 112.5C402.5 110.408 401.557 108.539 400.076 107.291C400.241 105.361 399.586 103.373 398.107 101.893C396.627 100.414 394.639 99.7592 392.709 99.9239C391.461 98.443 389.592 97.5 387.5 97.5C385.408 97.5 383.539 98.443 382.291 99.9239C380.361 99.7592 378.373 100.414 376.893 101.893C375.414 103.373 374.759 105.361 374.924 107.291C373.443 108.539 372.5 110.408 372.5 112.5C372.5 114.592 373.443 116.461 374.924 117.709C374.759 119.639 375.414 121.627 376.893 123.107ZM392 110C393.105 110 394 109.105 394 108C394 106.895 393.105 106 392 106C390.895 106 390 106.895 390 108C390 109.105 390.895 110 392 110ZM383 113C383 114.105 382.105 115 381 115C379.895 115 379 114.105 379 113C379 111.895 379.895 111 381 111C382.105 111 383 111.895 383 113ZM390.25 117.5C390.94 117.5 391.5 116.94 391.5 116.25C391.5 115.56 390.94 115 390.25 115C389.56 115 389 115.56 389 116.25C389 116.94 389.56 117.5 390.25 117.5Z" fill="white"/>
</g>
</g>
<g opacity="0.25" clip-path="url(#clip4_14447_69877)">
<circle cx="347.5" cy="426.5" r="26.25" stroke="white" stroke-width="2.5"/>
<mask id="mask0_14447_69877" style="mask-type:alpha" maskUnits="userSpaceOnUse" x="324" y="403" width="47" height="47">
<circle cx="347.5" cy="426.5" r="23.5" fill="#D9D9D9"/>
</mask>
<g mask="url(#mask0_14447_69877)">
<path fill-rule="evenodd" clip-rule="evenodd" d="M341.5 421.5H337.5V440H341.5V421.5ZM337.5 450.5V442.5H341.5V450.5H337.5ZM344 450.5V442.5H352V450.5H344ZM341.5 453H344H352H354.5H356.5H357H359H359.5H362.5H365H366.5H369V450.5V435.5V433H366.5H365V425.5V423H362.5H354.5H352V425.5V440H344V421.5V419H341.5H337.5H335V421.5V429H334.5H328.5H326V431.5V450.5V453H328.5H334.5H335H337H337.5H341.5ZM362.5 425.5H354.5V440H356.5H357V435.5V433H359.5H362.5V425.5ZM354.5 450.5H356.5V442.5H354.5V450.5ZM362.5 450.5H359.5V435.5H362.5V450.5ZM365 450.5V435.5H366.5V450.5H365ZM328.5 431.5H334.5V450.5H328.5V431.5Z" fill="white"/>
</g>
</g>
<g opacity="0.25">
<g clip-path="url(#clip5_14447_69877)">
<circle cx="1338.5" cy="426.5" r="26.25" stroke="white" stroke-width="2.5"/>
</g>
<path d="M1351.46 423.7C1353.19 423.699 1354.99 422.244 1355 419.808C1355 419.148 1354.91 418.566 1354.72 418.027C1354.48 417.36 1353.8 417.032 1353.19 417.293C1352.59 417.556 1352.29 418.31 1352.53 418.979C1352.61 419.204 1352.64 419.469 1352.64 419.792C1352.64 420.398 1352.33 420.795 1351.94 420.979L1347.93 415.444V413.3C1347.93 412.582 1347.4 412 1346.75 412C1346.1 412 1345.57 412.582 1345.57 413.3V414.6H1332.43V413.3C1332.43 412.582 1331.9 412 1331.25 412C1330.6 412 1330.07 412.582 1330.07 413.3V415.444L1326.06 420.978C1325.67 420.795 1325.36 420.398 1325.36 419.792C1325.36 419.467 1325.39 419.202 1325.47 418.978C1325.71 418.311 1325.42 417.555 1324.81 417.291C1324.2 417.026 1323.52 417.354 1323.28 418.021C1323.09 418.56 1323 419.145 1323 419.809C1323.01 422.244 1324.81 423.7 1326.54 423.7H1327.71V435.4H1315.18C1314.53 435.4 1314 435.981 1314 436.7C1314 437.418 1314.53 438 1315.18 438H1361.82C1362.47 438 1363 437.418 1363 436.7C1363 435.981 1362.47 435.4 1361.82 435.4H1350.29L1350.29 423.7L1351.46 423.7ZM1337.94 417.2H1340.06L1340.47 421.1L1337.53 421.1L1337.94 417.2ZM1331.82 417.2H1335.4L1334.99 421.1L1328.99 421.1L1331.82 417.2ZM1340.86 435.4H1337.14V430.738L1338.81 428.9H1339.19L1340.86 430.738V435.4ZM1347.93 435.4H1343.21V430.2C1343.21 429.855 1343.09 429.524 1342.87 429.281L1340.51 426.681C1340.29 426.437 1339.99 426.3 1339.68 426.3H1338.32C1338.01 426.3 1337.71 426.437 1337.49 426.681L1335.13 429.281C1334.91 429.524 1334.79 429.855 1334.79 430.2V435.4H1330.07V423.7H1347.93L1347.93 435.4ZM1343.01 421.1L1342.6 417.2H1346.18L1349.01 421.1H1343.01Z" fill="white"/>
</g>
<g opacity="0.2" clip-path="url(#clip6_14447_69877)">
<path d="M196.687 279C193.959 285.023 189.139 289.818 182.082 291.75C171.263 294.713 160.123 288.205 157.249 277.242C154.917 268.285 160.172 259.076 168.994 256.654C176.179 254.691 183.552 258.998 185.475 266.283C187.018 272.209 183.541 278.303 177.703 279.905C172.967 281.199 168.107 278.36 166.839 273.558C165.827 269.669 168.108 265.671 171.939 264.619C175.028 263.775 178.199 265.627 179.026 268.76C179.682 271.279 178.204 273.868 175.723 274.549C173.741 275.091 171.676 273.815 171.175 271.892C170.759 270.295 172 269 173.549 269.283" stroke="white" stroke-width="2.3" stroke-linecap="round" stroke-linejoin="bevel"/>
<path d="M198.75 268.5C198.75 282.997 186.997 294.75 172.5 294.75C158.003 294.75 146.25 282.997 146.25 268.5C146.25 254.003 158.003 242.25 172.5 242.25C186.997 242.25 198.75 254.003 198.75 268.5Z" stroke="white" stroke-width="2.5"/>
</g>
<g opacity="0.2" clip-path="url(#clip7_14447_69877)">
<circle cx="1513.5" cy="268.5" r="26.25" stroke="white" stroke-width="2.5"/>
<rect x="1504" y="253" width="19" height="32" rx="2" stroke="white" stroke-width="2.5"/>
<path d="M1509 251.5C1509 250.672 1509.67 250 1510.5 250H1516.5C1517.33 250 1518 250.672 1518 251.5V251.5C1518 252.328 1517.33 253 1516.5 253H1510.5C1509.67 253 1509 252.328 1509 251.5V251.5Z" stroke="white" stroke-width="2.5"/>
<rect x="1508" y="258" width="11" height="3" fill="white"/>
<rect x="1508" y="264" width="11" height="3" fill="white"/>
<rect x="1508" y="270" width="11" height="3" fill="white"/>
<rect x="1508" y="276" width="11" height="3" fill="white"/>
</g>
<g opacity="0.1" clip-path="url(#clip8_14447_69877)">
<path fill-rule="evenodd" clip-rule="evenodd" d="M27.5002 337C28.4494 337 29.2189 337.77 29.2189 338.719C29.2189 339.668 28.4494 340.438 27.5002 340.438C26.5509 340.438 25.7814 339.668 25.7814 338.719C25.7814 337.77 26.5509 337 27.5002 337ZM41.2501 340.684C42.0722 341.159 42.3538 342.21 41.8792 343.032C41.4046 343.854 40.3534 344.136 39.5313 343.661C38.7093 343.187 38.4276 342.135 38.9022 341.313C39.3769 340.491 40.428 340.21 41.2501 340.684ZM26.9271 383.198C37.2537 383.198 45.6251 374.827 45.6251 364.5C45.6251 354.173 37.2537 345.802 26.9271 345.802C16.6005 345.802 8.22914 354.173 8.22914 364.5C8.22914 374.827 16.6005 383.198 26.9271 383.198ZM26.9271 385.698C38.6344 385.698 48.1251 376.207 48.1251 364.5C48.1251 352.793 38.6344 343.302 26.9271 343.302C15.2198 343.302 5.72914 352.793 5.72914 364.5C5.72914 376.207 15.2198 385.698 26.9271 385.698ZM55.0001 364.5C55.0001 365.449 54.2306 366.219 53.2814 366.219C52.3321 366.219 51.5626 365.449 51.5626 364.5C51.5626 363.551 52.3321 362.781 53.2814 362.781C54.2306 362.781 55.0001 363.551 55.0001 364.5ZM1.71875 366.219C2.668 366.219 3.43751 365.449 3.43751 364.5C3.43751 363.551 2.668 362.781 1.71875 362.781C0.769512 362.781 0 363.551 0 364.5C0 365.449 0.769512 366.219 1.71875 366.219ZM51.3158 350.75C51.7904 351.572 51.5088 352.623 50.6867 353.098C49.8646 353.572 48.8134 353.291 48.3388 352.469C47.8642 351.647 48.1459 350.595 48.9679 350.121C49.79 349.646 50.8412 349.928 51.3158 350.75ZM6.03222 378.879C6.85428 378.405 7.13594 377.353 6.66132 376.531C6.1867 375.709 5.13553 375.428 4.31346 375.902C3.49139 376.377 3.20973 377.428 3.68435 378.25C4.15897 379.072 5.21015 379.354 6.03222 378.879ZM16.098 387.687C16.5726 386.865 16.291 385.813 15.4689 385.339C14.6469 384.864 13.5957 385.146 13.1211 385.968C12.6464 386.79 12.9281 387.841 13.7502 388.316C14.5722 388.79 15.6234 388.509 16.098 387.687ZM29.2191 390.281C29.2191 389.332 28.4496 388.562 27.5003 388.562C26.5511 388.562 25.7816 389.332 25.7816 390.281C25.7816 391.23 26.5511 392 27.5003 392C28.4496 392 29.2191 391.23 29.2191 390.281ZM13.7502 340.684C14.5722 340.21 15.6234 340.491 16.098 341.313C16.5726 342.136 16.291 343.187 15.4689 343.661C14.6469 344.136 13.5957 343.854 13.1211 343.032C12.6464 342.21 12.9281 341.159 13.7502 340.684ZM41.8793 385.968C41.4047 385.146 40.3535 384.864 39.5315 385.339C38.7094 385.813 38.4277 386.864 38.9024 387.687C39.377 388.509 40.4282 388.79 41.2502 388.316C42.0723 387.841 42.354 386.79 41.8793 385.968ZM3.68446 350.75C4.15908 349.928 5.21025 349.646 6.03232 350.121C6.85439 350.596 7.13605 351.647 6.66143 352.469C6.18681 353.291 5.13563 353.573 4.31356 353.098C3.4915 352.623 3.20984 351.572 3.68446 350.75ZM50.6868 375.902C49.8647 375.427 48.8135 375.709 48.3389 376.531C47.8643 377.353 48.146 378.404 48.968 378.879C49.7901 379.354 50.8413 379.072 51.3159 378.25C51.7905 377.428 51.5089 376.377 50.6868 375.902Z" fill="white"/>
</g>
<g opacity="0.1" clip-path="url(#clip9_14447_69877)">
<path fill-rule="evenodd" clip-rule="evenodd" d="M1658.37 342.489C1659.49 342.489 1660.39 341.582 1660.39 340.463C1660.39 339.344 1659.49 338.437 1658.37 338.437C1657.25 338.437 1656.34 339.344 1656.34 340.463C1656.34 341.582 1657.25 342.489 1658.37 342.489ZM1664.21 350.066C1663.99 350.877 1663.16 351.358 1662.34 351.141C1661.53 350.924 1661.05 350.09 1661.27 349.28C1661.49 348.469 1662.32 347.988 1663.13 348.205C1663.94 348.422 1664.42 349.256 1664.21 350.066ZM1665.55 378.094C1664.83 378.513 1664.58 379.443 1665 380.17C1665.42 380.896 1666.35 381.145 1667.07 380.726C1667.8 380.306 1668.05 379.377 1667.63 378.65C1667.21 377.923 1666.28 377.674 1665.55 378.094ZM1653.86 382.804C1654.67 383.021 1655.5 382.54 1655.72 381.729C1655.94 380.919 1655.46 380.085 1654.65 379.868C1653.84 379.651 1653 380.132 1652.79 380.943C1652.57 381.753 1653.05 382.587 1653.86 382.804ZM1675.89 369.789C1676.11 368.978 1675.63 368.145 1674.82 367.928C1674 367.711 1673.17 368.192 1672.95 369.002C1672.74 369.813 1673.22 370.646 1674.03 370.863C1674.84 371.081 1675.67 370.6 1675.89 369.789ZM1643.15 359.444C1643.96 359.661 1644.44 360.494 1644.23 361.305C1644.01 362.116 1643.18 362.597 1642.37 362.379C1641.56 362.162 1641.07 361.329 1641.29 360.518C1641.51 359.708 1642.34 359.227 1643.15 359.444ZM1673.94 356.079C1673.52 355.352 1672.6 355.103 1671.87 355.523C1671.14 355.943 1670.89 356.872 1671.31 357.599C1671.73 358.326 1672.66 358.575 1673.39 358.155C1674.11 357.735 1674.36 356.806 1673.94 356.079ZM1643.48 371.913C1644.21 371.493 1645.14 371.742 1645.56 372.469C1645.98 373.196 1645.73 374.125 1645 374.545C1644.27 374.965 1643.34 374.716 1642.92 373.989C1642.5 373.262 1642.75 372.333 1643.48 371.913ZM1649.16 349.706C1648.44 350.125 1648.19 351.055 1648.61 351.781C1649.03 352.508 1649.96 352.757 1650.68 352.337C1651.41 351.918 1651.66 350.989 1651.24 350.262C1650.82 349.535 1649.89 349.286 1649.16 349.706ZM1660.39 390.101C1660.39 391.22 1659.49 392.127 1658.37 392.127C1657.25 392.127 1656.34 391.22 1656.34 390.101C1656.34 388.982 1657.25 388.075 1658.37 388.075C1659.49 388.075 1660.39 388.982 1660.39 390.101ZM1683.19 363.256C1684.31 363.256 1685.21 364.163 1685.21 365.282C1685.21 366.401 1684.31 367.308 1683.19 367.308C1682.07 367.308 1681.16 366.401 1681.16 365.282C1681.16 364.163 1682.07 363.256 1683.19 363.256ZM1635.57 365.282C1635.57 364.163 1634.67 363.256 1633.55 363.256C1632.43 363.256 1631.52 364.163 1631.52 365.282C1631.52 366.401 1632.43 367.308 1633.55 367.308C1634.67 367.308 1635.57 366.401 1635.57 365.282ZM1674.48 346.3C1675.28 345.508 1676.56 345.508 1677.35 346.3C1678.14 347.091 1678.14 348.374 1677.35 349.165C1676.56 349.956 1675.28 349.956 1674.48 349.165C1673.69 348.374 1673.69 347.091 1674.48 346.3ZM1642.25 381.399C1641.46 380.608 1640.18 380.608 1639.39 381.399C1638.59 382.19 1638.59 383.473 1639.39 384.264C1640.18 385.056 1641.46 385.056 1642.25 384.264C1643.04 383.473 1643.04 382.19 1642.25 381.399ZM1639.39 349.165C1638.59 348.374 1638.59 347.091 1639.39 346.3C1640.18 345.509 1641.46 345.509 1642.25 346.3C1643.04 347.091 1643.04 348.374 1642.25 349.165C1641.46 349.956 1640.18 349.956 1639.39 349.165ZM1674.49 381.399C1673.69 382.19 1673.69 383.473 1674.49 384.265C1675.28 385.056 1676.56 385.056 1677.35 384.265C1678.14 383.473 1678.14 382.19 1677.35 381.399C1676.56 380.608 1675.28 380.608 1674.49 381.399ZM1658.76 373.549C1658.7 373.13 1659 372.746 1659.42 372.69C1659.84 372.634 1660.22 372.928 1660.28 373.346C1660.33 373.765 1660.04 374.149 1659.62 374.205C1659.2 374.261 1658.82 373.967 1658.76 373.549ZM1653.08 372.64C1653.41 372.896 1653.89 372.832 1654.15 372.497C1654.41 372.162 1654.34 371.682 1654.01 371.426C1653.67 371.17 1653.19 371.234 1652.94 371.569C1652.68 371.904 1652.74 372.384 1653.08 372.64ZM1664.16 359.404C1663.9 359.739 1663.42 359.803 1663.09 359.547C1662.75 359.291 1662.69 358.811 1662.94 358.476C1663.2 358.141 1663.68 358.077 1664.01 358.333C1664.35 358.589 1664.41 359.069 1664.16 359.404ZM1665.81 370.809C1666.07 370.474 1666 369.995 1665.67 369.738C1665.33 369.482 1664.85 369.546 1664.6 369.881C1664.34 370.217 1664.4 370.696 1664.74 370.952C1665.08 371.208 1665.55 371.144 1665.81 370.809ZM1652.57 359.731C1652.91 359.987 1652.97 360.466 1652.72 360.801C1652.46 361.137 1651.98 361.201 1651.65 360.944C1651.31 360.688 1651.25 360.209 1651.5 359.874C1651.76 359.538 1652.24 359.474 1652.57 359.731ZM1667.53 364.064C1667.48 363.646 1667.09 363.352 1666.67 363.408C1666.26 363.464 1665.96 363.848 1666.02 364.266C1666.07 364.684 1666.46 364.978 1666.88 364.922C1667.29 364.866 1667.59 364.482 1667.53 364.064ZM1650.34 365.59C1650.76 365.534 1651.14 365.827 1651.2 366.246C1651.25 366.664 1650.96 367.048 1650.54 367.104C1650.12 367.16 1649.74 366.866 1649.68 366.448C1649.63 366.03 1649.92 365.645 1650.34 365.59ZM1657.23 356.355C1656.82 356.411 1656.52 356.796 1656.58 357.214C1656.63 357.632 1657.02 357.926 1657.44 357.87C1657.86 357.814 1658.15 357.43 1658.09 357.012C1658.04 356.593 1657.65 356.3 1657.23 356.355Z" fill="white"/>
</g>
<g opacity="0.2" clip-path="url(#clip10_14447_69877)">
<path d="M943.3 273C943.3 280.345 937.345 286.3 930 286.3C922.655 286.3 916.7 280.345 916.7 273C916.7 265.655 922.655 259.7 930 259.7C937.345 259.7 943.3 265.655 943.3 273Z" stroke="white" stroke-width="1.4"/>
<path fill-rule="evenodd" clip-rule="evenodd" d="M933.028 266.127H927.345L926.182 272.951H929.024V280.382L934.327 270.303H931.529L933.028 266.127Z" stroke="white" stroke-width="1.27273" stroke-linejoin="round"/>
</g>
<g opacity="0.3" clip-path="url(#clip11_14447_69877)">
<path fill-rule="evenodd" clip-rule="evenodd" d="M912.5 13C913.449 13 914.219 13.7695 914.219 14.7188C914.219 15.668 913.449 16.4375 912.5 16.4375C911.551 16.4375 910.781 15.668 910.781 14.7188C910.781 13.7695 911.551 13 912.5 13ZM926.25 16.6843C927.072 17.1589 927.354 18.2101 926.879 19.0321C926.405 19.8542 925.353 20.1359 924.531 19.6612C923.709 19.1866 923.428 18.1354 923.902 17.3134C924.377 16.4913 925.428 16.2096 926.25 16.6843ZM911.927 59.1979C922.254 59.1979 930.625 50.8266 930.625 40.5C930.625 30.1734 922.254 21.802 911.927 21.802C901.601 21.802 893.229 30.1734 893.229 40.5C893.229 50.8266 901.601 59.1979 911.927 59.1979ZM911.927 61.6979C923.634 61.6979 933.125 52.2073 933.125 40.5C933.125 28.7927 923.634 19.302 911.927 19.302C900.22 19.302 890.729 28.7927 890.729 40.5C890.729 52.2073 900.22 61.6979 911.927 61.6979ZM940 40.5C940 41.4492 939.231 42.2188 938.281 42.2188C937.332 42.2188 936.563 41.4492 936.563 40.5C936.563 39.5508 937.332 38.7812 938.281 38.7812C939.231 38.7812 940 39.5508 940 40.5ZM886.719 42.2188C887.668 42.2188 888.438 41.4492 888.438 40.5C888.438 39.5508 887.668 38.7812 886.719 38.7812C885.77 38.7812 885 39.5508 885 40.5C885 41.4492 885.77 42.2188 886.719 42.2188ZM936.316 26.7499C936.79 27.572 936.509 28.6232 935.687 29.0978C934.865 29.5724 933.813 29.2907 933.339 28.4687C932.864 27.6466 933.146 26.5954 933.968 26.1208C934.79 25.6462 935.841 25.9278 936.316 26.7499ZM891.032 54.8792C891.854 54.4045 892.136 53.3534 891.661 52.5313C891.187 51.7092 890.136 51.4276 889.313 51.9022C888.491 52.3768 888.21 53.428 888.684 54.25C889.159 55.0721 890.21 55.3538 891.032 54.8792ZM901.098 63.6866C901.573 62.8646 901.291 61.8134 900.469 61.3388C899.647 60.8642 898.596 61.1458 898.121 61.9679C897.646 62.7899 897.928 63.8411 898.75 64.3157C899.572 64.7904 900.623 64.5087 901.098 63.6866ZM914.219 66.2812C914.219 65.332 913.45 64.5625 912.5 64.5625C911.551 64.5625 910.782 65.332 910.782 66.2812C910.782 67.2305 911.551 68 912.5 68C913.45 68 914.219 67.2305 914.219 66.2812ZM898.75 16.6843C899.572 16.2097 900.623 16.4914 901.098 17.3134C901.573 18.1355 901.291 19.1867 900.469 19.6613C899.647 20.1359 898.596 19.8543 898.121 19.0322C897.646 18.2101 897.928 17.159 898.75 16.6843ZM926.879 61.9678C926.405 61.1457 925.354 60.8641 924.531 61.3387C923.709 61.8133 923.428 62.8645 923.902 63.6865C924.377 64.5086 925.428 64.7903 926.25 64.3156C927.072 63.841 927.354 62.7899 926.879 61.9678ZM888.684 26.7501C889.159 25.928 890.21 25.6463 891.032 26.1209C891.854 26.5956 892.136 27.6467 891.661 28.4688C891.187 29.2909 890.136 29.5725 889.314 29.0979C888.491 28.6233 888.21 27.5721 888.684 26.7501ZM935.687 51.9021C934.865 51.4274 933.814 51.7091 933.339 52.5312C932.864 53.3532 933.146 54.4044 933.968 54.879C934.79 55.3537 935.841 55.072 936.316 54.2499C936.791 53.4279 936.509 52.3767 935.687 51.9021Z" fill="white"/>
</g>
<g opacity="0.1" clip-path="url(#clip12_14447_69877)">
<circle cx="714.5" cy="243.5" r="27.9545" stroke="white" stroke-width="3.09091"/>
<path fill-rule="evenodd" clip-rule="evenodd" d="M729.25 248.327V227.158L707.259 234.488V246.181C706.139 245.34 704.746 244.841 703.236 244.841C699.533 244.841 696.532 247.843 696.532 251.545C696.532 255.248 699.533 258.25 703.236 258.25C706.939 258.25 709.941 255.248 709.941 251.545H709.941V236.421L726.568 230.879V242.963C725.448 242.121 724.055 241.623 722.545 241.623C718.843 241.623 715.841 244.624 715.841 248.327C715.841 252.03 718.843 255.032 722.545 255.032C726.248 255.032 729.25 252.03 729.25 248.327H729.25ZM722.545 244.304C720.324 244.304 718.523 246.105 718.523 248.327C718.523 250.549 720.324 252.35 722.545 252.35C724.767 252.35 726.568 250.549 726.568 248.327C726.568 246.105 724.767 244.304 722.545 244.304ZM703.236 247.523C701.015 247.523 699.214 249.324 699.214 251.545C699.214 253.767 701.015 255.568 703.236 255.568C705.458 255.568 707.259 253.767 707.259 251.545C707.259 249.324 705.458 247.523 703.236 247.523Z" fill="white"/>
</g>
<g opacity="0.2" clip-path="url(#clip13_14447_69877)">
<path fill-rule="evenodd" clip-rule="evenodd" d="M1020.5 339.5C1034.31 339.5 1045.5 328.307 1045.5 314.5C1045.5 300.693 1034.31 289.5 1020.5 289.5C1006.69 289.5 995.5 300.693 995.5 314.5C995.5 328.307 1006.69 339.5 1020.5 339.5ZM1020.5 342C1035.69 342 1048 329.688 1048 314.5C1048 299.312 1035.69 287 1020.5 287C1005.31 287 993 299.312 993 314.5C993 329.688 1005.31 342 1020.5 342ZM1014 305.5C1014 304.672 1014.67 304 1015.5 304C1016.33 304 1017 304.672 1017 305.5V322.5C1017 323.328 1016.33 324 1015.5 324C1014.67 324 1014 323.328 1014 322.5V305.5ZM1025.5 304C1024.67 304 1024 304.672 1024 305.5V322.5C1024 323.328 1024.67 324 1025.5 324C1026.33 324 1027 323.328 1027 322.5V305.5C1027 304.672 1026.33 304 1025.5 304Z" fill="white"/>
</g>
<g opacity="0.3" clip-path="url(#clip14_14447_69877)">
<circle cx="637" cy="415" r="20.0455" stroke="white" stroke-width="1.90909"/>
<path fill-rule="evenodd" clip-rule="evenodd" d="M641.964 403.927C641.964 405.614 640.596 406.982 638.909 406.982C637.222 406.982 635.855 405.614 635.855 403.927C635.855 402.24 637.222 400.873 638.909 400.873C640.596 400.873 641.964 402.24 641.964 403.927ZM637.573 413.998V408.509H637.535H635.664H635.091L630.52 417.271H630.509L630.509 417.291L630.509 417.291L630.509 417.291L630.573 425.118H628.982V427.027H632.482V419.18H635.87L635.918 425.118H634.327V427.027H637.827V419.18H642.918V408.509H642.881H641.009H640.436L637.573 413.998ZM638.046 417.271H641.009V411.901L638.046 417.271ZM635.664 417.271V411.901L632.701 417.271H635.664Z" fill="white"/>
</g>
<g opacity="0.2" clip-path="url(#clip15_14447_69877)">
<circle cx="921.5" cy="423.5" r="26.25" stroke="white" stroke-width="2.5"/>
<mask id="mask1_14447_69877" style="mask-type:alpha" maskUnits="userSpaceOnUse" x="899" y="401" width="45" height="45">
<circle cx="921.5" cy="423.5" r="22.5" fill="#C4C4C4"/>
</mask>
<g mask="url(#mask1_14447_69877)">
<path d="M932 435.5C932 436.328 931.328 437 930.5 437C929.672 437 929 436.328 929 435.5C929 434.672 929.672 434 930.5 434C931.328 434 932 434.672 932 435.5Z" fill="white"/>
<path fill-rule="evenodd" clip-rule="evenodd" d="M930.5 439.5C932.709 439.5 934.5 437.709 934.5 435.5C934.5 433.291 932.709 431.5 930.5 431.5C928.291 431.5 926.5 433.291 926.5 435.5C926.5 437.709 928.291 439.5 930.5 439.5ZM930.5 442C934.09 442 937 439.09 937 435.5C937 431.91 934.09 429 930.5 429C926.91 429 924 431.91 924 435.5C924 439.09 926.91 442 930.5 442Z" fill="white"/>
<path fill-rule="evenodd" clip-rule="evenodd" d="M935.5 400.5C937.157 400.5 938.5 399.157 938.5 397.5C938.5 395.843 937.157 394.5 935.5 394.5C933.843 394.5 932.5 395.843 932.5 397.5C932.5 399.157 933.843 400.5 935.5 400.5ZM935.5 403C938.538 403 941 400.538 941 397.5C941 394.462 938.538 392 935.5 392C932.462 392 930 394.462 930 397.5C930 400.538 932.462 403 935.5 403Z" fill="white"/>
<path fill-rule="evenodd" clip-rule="evenodd" d="M930.5 445.5C936.023 445.5 940.5 441.023 940.5 435.5C940.5 429.977 936.023 425.5 930.5 425.5C924.977 425.5 920.5 429.977 920.5 435.5C920.5 441.023 924.977 445.5 930.5 445.5ZM930.5 448C937.404 448 943 442.404 943 435.5C943 428.596 937.404 423 930.5 423C923.596 423 918 428.596 918 435.5C918 442.404 923.596 448 930.5 448Z" fill="white" fill-opacity="0.5"/>
<path fill-rule="evenodd" clip-rule="evenodd" d="M935.5 405.5C939.918 405.5 943.5 401.918 943.5 397.5C943.5 393.082 939.918 389.5 935.5 389.5C931.082 389.5 927.5 393.082 927.5 397.5C927.5 401.918 931.082 405.5 935.5 405.5ZM935.5 408C941.299 408 946 403.299 946 397.5C946 391.701 941.299 387 935.5 387C929.701 387 925 391.701 925 397.5C925 403.299 929.701 408 935.5 408Z" fill="white"/>
<path fill-rule="evenodd" clip-rule="evenodd" d="M930.5 451.5C939.337 451.5 946.5 444.337 946.5 435.5C946.5 426.663 939.337 419.5 930.5 419.5C921.663 419.5 914.5 426.663 914.5 435.5C914.5 444.337 921.663 451.5 930.5 451.5ZM930.5 454C940.717 454 949 445.717 949 435.5C949 425.283 940.717 417 930.5 417C920.283 417 912 425.283 912 435.5C912 445.717 920.283 454 930.5 454Z" fill="white" fill-opacity="0.2"/>
<path fill-rule="evenodd" clip-rule="evenodd" d="M935.5 410.5C942.68 410.5 948.5 404.68 948.5 397.5C948.5 390.32 942.68 384.5 935.5 384.5C928.32 384.5 922.5 390.32 922.5 397.5C922.5 404.68 928.32 410.5 935.5 410.5ZM935.5 413C944.06 413 951 406.06 951 397.5C951 388.94 944.06 382 935.5 382C926.94 382 920 388.94 920 397.5C920 406.06 926.94 413 935.5 413Z" fill="white" fill-opacity="0.1"/>
<path fill-rule="evenodd" clip-rule="evenodd" d="M891.5 447.5C898.68 447.5 904.5 441.68 904.5 434.5C904.5 427.32 898.68 421.5 891.5 421.5C884.32 421.5 878.5 427.32 878.5 434.5C878.5 441.68 884.32 447.5 891.5 447.5ZM891.5 450C900.06 450 907 443.06 907 434.5C907 425.94 900.06 419 891.5 419C882.94 419 876 425.94 876 434.5C876 443.06 882.94 450 891.5 450Z" fill="white"/>
<path fill-rule="evenodd" clip-rule="evenodd" d="M909.5 412.5C910.052 412.5 910.5 412.052 910.5 411.5C910.5 410.948 910.052 410.5 909.5 410.5C908.948 410.5 908.5 410.948 908.5 411.5C908.5 412.052 908.948 412.5 909.5 412.5ZM909.5 415C911.433 415 913 413.433 913 411.5C913 409.567 911.433 408 909.5 408C907.567 408 906 409.567 906 411.5C906 413.433 907.567 415 909.5 415Z" fill="white"/>
<path fill-rule="evenodd" clip-rule="evenodd" d="M909.5 418.5C913.366 418.5 916.5 415.366 916.5 411.5C916.5 407.634 913.366 404.5 909.5 404.5C905.634 404.5 902.5 407.634 902.5 411.5C902.5 415.366 905.634 418.5 909.5 418.5ZM909.5 421C914.747 421 919 416.747 919 411.5C919 406.253 914.747 402 909.5 402C904.253 402 900 406.253 900 411.5C900 416.747 904.253 421 909.5 421Z" fill="white" fill-opacity="0.1"/>
</g>
</g>
<g opacity="0.3" clip-path="url(#clip16_14447_69877)">
<circle cx="788.5" cy="524.5" r="26.25" stroke="white" stroke-width="2.5"/>
<path d="M801 510L788 525" stroke="white" stroke-width="2.5"/>
<path d="M802 511L788 525C781 517 779.5 514 774.5 509C788 500.5 799 507.5 802 511Z" fill="url(#paint0_linear_14447_69877)"/>
<circle cx="786" cy="510" r="2" fill="white"/>
<circle cx="792" cy="534" r="2" fill="white" fill-opacity="0.8"/>
<circle cx="779" cy="522" r="3" fill="white"/>
<circle cx="776" cy="528" r="1" fill="white"/>
</g>
<g opacity="0.3" clip-path="url(#clip17_14447_69877)">
<mask id="mask2_14447_69877" style="mask-type:alpha" maskUnits="userSpaceOnUse" x="616" y="106" width="45" height="45">
<path d="M638.5 151C650.926 151 661 140.926 661 128.5C661 116.074 650.926 106 638.5 106C626.074 106 616 116.074 616 128.5C616 140.926 626.074 151 638.5 151Z" fill="white"/>
</mask>
<g mask="url(#mask2_14447_69877)">
<path fill-rule="evenodd" clip-rule="evenodd" d="M613.273 112.006C614.103 112.904 614.103 112.904 614.102 112.904L614.101 112.905L614.1 112.907L614.098 112.909C614.096 112.91 614.096 112.91 614.096 112.91L614.106 112.901C614.119 112.89 614.143 112.87 614.18 112.841C614.253 112.783 614.375 112.69 614.549 112.571C614.897 112.333 615.456 111.989 616.253 111.604C617.847 110.834 620.406 109.897 624.166 109.325C627.829 108.767 631.39 109.29 635.162 109.854L635.24 109.866C638.933 110.418 642.834 111.001 646.897 110.383C650.893 109.774 653.691 108.766 655.516 107.885C656.427 107.445 657.093 107.038 657.542 106.731C657.767 106.577 657.937 106.449 658.056 106.354C658.115 106.307 658.162 106.268 658.197 106.238C658.214 106.224 658.228 106.211 658.239 106.201L658.254 106.188L658.259 106.183L658.262 106.181L658.263 106.18C658.263 106.18 658.264 106.179 657.433 105.282C656.603 104.384 656.603 104.383 656.603 104.383L656.604 104.382L656.606 104.381L656.608 104.379L656.599 104.386C656.587 104.397 656.562 104.417 656.526 104.446C656.453 104.505 656.331 104.597 656.157 104.716C655.809 104.954 655.25 105.299 654.453 105.684C652.859 106.453 650.3 107.39 646.54 107.963C642.877 108.52 639.316 107.997 635.544 107.433L635.465 107.421C631.773 106.869 627.872 106.286 623.809 106.905C619.813 107.513 617.015 108.522 615.19 109.403C614.278 109.843 613.612 110.25 613.163 110.557C612.939 110.71 612.769 110.839 612.65 110.933C612.59 110.981 612.544 111.02 612.509 111.049C612.492 111.064 612.478 111.076 612.466 111.086L612.452 111.099L612.446 111.104L612.444 111.106L612.443 111.107C612.442 111.108 612.442 111.108 613.273 112.006ZM614.102 119.019C614.103 119.019 614.103 119.018 613.273 118.12C612.442 117.223 612.442 117.222 612.443 117.222L612.444 117.221L612.446 117.219L612.452 117.214L612.466 117.201C612.478 117.191 612.492 117.178 612.509 117.164C612.544 117.134 612.59 117.095 612.65 117.048C612.769 116.953 612.939 116.825 613.163 116.671C613.612 116.364 614.278 115.957 615.19 115.517C617.015 114.636 619.813 113.628 623.809 113.019C627.872 112.401 631.773 112.984 635.465 113.536L635.544 113.548C639.316 114.112 642.877 114.635 646.54 114.077C650.3 113.505 652.859 112.568 654.453 111.798C655.25 111.413 655.809 111.069 656.157 110.831C656.331 110.712 656.453 110.619 656.526 110.561C656.562 110.532 656.587 110.512 656.599 110.501L656.608 110.493L656.606 110.495L656.604 110.497L656.603 110.498C656.603 110.498 656.603 110.498 657.433 111.396C658.264 112.294 658.263 112.294 658.263 112.295L658.262 112.296L658.259 112.298L658.254 112.303L658.239 112.316C658.228 112.326 658.214 112.338 658.197 112.353C658.162 112.382 658.115 112.421 658.056 112.469C657.937 112.563 657.767 112.692 657.542 112.845C657.093 113.152 656.427 113.559 655.516 113.999C653.691 114.88 650.893 115.889 646.897 116.497C642.834 117.116 638.933 116.533 635.24 115.981L635.162 115.969C631.39 115.405 627.829 114.882 624.166 115.439C620.406 116.012 617.847 116.949 616.253 117.718C615.456 118.103 614.897 118.448 614.549 118.686C614.375 118.805 614.253 118.897 614.18 118.956C614.143 118.985 614.119 119.005 614.106 119.016L614.096 119.025C614.096 119.025 614.096 119.024 614.098 119.023L614.1 119.021L614.101 119.02L614.102 119.019ZM614.059 123.99C614.89 124.888 614.889 124.888 614.889 124.889L614.888 124.889L614.886 124.891L614.884 124.893C614.883 124.894 614.882 124.894 614.883 124.894L614.893 124.885C614.906 124.875 614.93 124.854 614.966 124.825C615.039 124.767 615.161 124.674 615.335 124.555C615.684 124.317 616.242 123.973 617.04 123.588C618.633 122.818 621.193 121.881 624.952 121.309C628.616 120.751 632.176 121.275 635.948 121.838L636.027 121.85C639.72 122.402 643.62 122.985 647.683 122.367C651.679 121.758 654.477 120.75 656.302 119.869C657.214 119.429 657.88 119.022 658.329 118.715C658.553 118.561 658.723 118.433 658.842 118.338C658.902 118.291 658.949 118.252 658.983 118.223L659.008 118.201L659.026 118.186L659.04 118.173L659.046 118.168L659.048 118.165L659.049 118.164C659.05 118.164 659.05 118.163 658.22 117.266C657.389 116.368 657.389 116.368 657.39 116.367L657.391 116.366L657.392 116.365L657.395 116.363L657.386 116.37C657.373 116.381 657.349 116.402 657.312 116.431C657.239 116.489 657.118 116.581 656.943 116.701C656.595 116.939 656.037 117.283 655.239 117.668C653.645 118.437 651.086 119.374 647.327 119.947C643.663 120.505 640.103 119.981 636.331 119.417L636.252 119.406C632.559 118.854 628.659 118.27 624.596 118.889C620.6 119.497 617.801 120.506 615.977 121.387C615.065 121.827 614.399 122.234 613.95 122.541C613.725 122.694 613.555 122.823 613.436 122.917C613.377 122.965 613.33 123.004 613.295 123.033C613.278 123.048 613.264 123.06 613.253 123.07L613.238 123.083L613.233 123.088L613.23 123.09L613.229 123.091C613.229 123.092 613.228 123.092 614.059 123.99ZM615.704 130.758C615.704 130.758 615.705 130.757 614.874 129.86C614.044 128.962 614.044 128.961 614.045 128.961L614.046 128.96L614.048 128.958L614.054 128.953L614.068 128.94C614.079 128.93 614.093 128.918 614.111 128.903C614.145 128.873 614.192 128.834 614.251 128.787C614.371 128.692 614.541 128.564 614.765 128.411C615.214 128.104 615.88 127.697 616.792 127.256C618.616 126.376 621.415 125.367 625.411 124.759C629.474 124.14 633.374 124.723 637.067 125.275L637.146 125.287C640.918 125.851 644.478 126.374 648.142 125.816C651.901 125.244 654.46 124.307 656.054 123.537C656.852 123.152 657.41 122.808 657.758 122.57C657.933 122.451 658.054 122.358 658.128 122.3C658.164 122.271 658.188 122.251 658.201 122.24L658.21 122.232L658.208 122.234L658.206 122.236L658.205 122.237C658.205 122.237 658.204 122.238 659.035 123.135C659.866 124.033 659.865 124.034 659.865 124.034L659.863 124.035L659.861 124.037L659.856 124.042L659.841 124.055L659.826 124.068L659.798 124.092C659.764 124.122 659.717 124.161 659.658 124.208C659.538 124.303 659.369 124.431 659.144 124.584C658.695 124.891 658.029 125.298 657.117 125.738C655.293 126.619 652.494 127.628 648.498 128.236C644.435 128.855 640.535 128.272 636.842 127.72L636.763 127.708C632.991 127.144 629.431 126.621 625.767 127.179C622.008 127.751 619.449 128.688 617.855 129.457C617.057 129.842 616.499 130.187 616.151 130.425C615.976 130.544 615.855 130.637 615.782 130.695C615.745 130.724 615.721 130.744 615.708 130.755L615.698 130.764L615.699 130.763L615.702 130.76L615.703 130.759L615.704 130.758ZM615.69 135.729C616.521 136.627 616.521 136.627 616.52 136.628L616.519 136.629L616.518 136.63L616.515 136.632L616.524 136.624C616.537 136.614 616.561 136.593 616.598 136.564C616.671 136.506 616.792 136.413 616.967 136.294C617.315 136.056 617.873 135.712 618.671 135.327C620.265 134.558 622.824 133.621 626.583 133.048C630.247 132.49 633.807 133.014 637.579 133.578L637.658 133.589C641.351 134.141 645.251 134.725 649.314 134.106C653.31 133.497 656.109 132.489 657.933 131.608C658.845 131.168 659.511 130.761 659.96 130.454C660.185 130.3 660.355 130.172 660.474 130.077C660.533 130.03 660.58 129.991 660.615 129.962C660.632 129.947 660.646 129.935 660.657 129.925L660.672 129.912L660.677 129.907L660.68 129.905L660.681 129.904C660.681 129.903 660.682 129.903 659.851 129.005C659.02 128.107 659.021 128.107 659.021 128.106L659.022 128.105L659.024 128.104L659.026 128.102L659.017 128.11C659.004 128.12 658.98 128.141 658.944 128.17C658.871 128.228 658.749 128.321 658.575 128.44C658.226 128.678 657.668 129.022 656.87 129.407C655.277 130.176 652.717 131.113 648.958 131.686C645.294 132.244 641.734 131.72 637.962 131.156L637.883 131.145C634.19 130.593 630.29 130.009 626.227 130.628C622.231 131.237 619.433 132.245 617.608 133.126C616.696 133.566 616.03 133.973 615.581 134.28C615.357 134.434 615.187 134.562 615.068 134.657C615.008 134.704 614.961 134.743 614.927 134.772C614.909 134.787 614.895 134.8 614.884 134.809L614.87 134.822L614.864 134.827L614.862 134.83L614.861 134.83C614.86 134.831 614.86 134.831 615.69 135.729ZM616.506 141.599C617.337 142.496 617.336 142.497 617.336 142.497L617.335 142.498L617.333 142.5L617.331 142.502L617.34 142.494C617.352 142.483 617.377 142.463 617.413 142.434C617.486 142.376 617.608 142.283 617.782 142.164C618.13 141.926 618.689 141.582 619.487 141.197C621.08 140.427 623.639 139.49 627.399 138.918C631.062 138.36 634.623 138.883 638.395 139.447L638.474 139.459C642.166 140.011 646.067 140.594 650.13 139.975C654.126 139.367 656.924 138.358 658.749 137.478C659.661 137.038 660.327 136.63 660.776 136.323C661 136.17 661.17 136.042 661.289 135.947C661.349 135.9 661.396 135.861 661.43 135.831C661.447 135.816 661.462 135.804 661.473 135.794L661.487 135.781L661.493 135.776L661.495 135.774L661.496 135.773C661.497 135.773 661.497 135.772 660.667 134.874C659.836 133.977 659.836 133.976 659.837 133.976L659.838 133.975L659.839 133.974L659.842 133.972L659.833 133.979L659.817 133.992C659.803 134.004 659.784 134.02 659.759 134.039C659.686 134.097 659.564 134.19 659.39 134.309C659.042 134.547 658.484 134.892 657.686 135.277C656.092 136.046 653.533 136.983 649.774 137.555C646.11 138.113 642.549 137.59 638.777 137.026L638.699 137.014C635.006 136.462 631.106 135.879 627.043 136.498C623.046 137.106 620.248 138.115 618.423 138.996C617.512 139.436 616.846 139.843 616.397 140.15C616.172 140.303 616.002 140.431 615.883 140.526C615.824 140.574 615.777 140.612 615.742 140.642C615.725 140.657 615.711 140.669 615.7 140.679L615.685 140.692L615.68 140.697L615.677 140.699L615.676 140.7C615.676 140.701 615.675 140.701 616.506 141.599ZM617.462 148.367C617.462 148.366 617.462 148.366 616.632 147.468C615.801 146.571 615.802 146.57 615.802 146.57L615.803 146.569L615.806 146.566L615.811 146.561L615.826 146.549C615.837 146.539 615.851 146.526 615.868 146.512C615.903 146.482 615.95 146.443 616.009 146.396C616.128 146.301 616.298 146.173 616.523 146.019C616.972 145.712 617.638 145.305 618.549 144.865C620.374 143.984 623.172 142.976 627.168 142.367C631.231 141.749 635.132 142.332 638.824 142.884L638.903 142.896C642.675 143.459 646.236 143.983 649.899 143.425C653.659 142.853 656.218 141.916 657.812 141.146C658.609 140.761 659.168 140.417 659.516 140.179C659.69 140.06 659.812 139.967 659.885 139.909L659.915 139.885L659.939 139.865L659.959 139.849L659.967 139.841L659.965 139.843L659.964 139.845L659.963 139.845C659.962 139.846 659.962 139.846 660.792 140.744C661.623 141.642 661.623 141.642 661.622 141.643L661.621 141.644L661.619 141.646L661.613 141.651L661.599 141.664C661.587 141.674 661.573 141.686 661.556 141.701C661.521 141.73 661.475 141.769 661.415 141.817C661.296 141.911 661.126 142.04 660.902 142.193C660.453 142.5 659.787 142.907 658.875 143.347C657.05 144.228 654.252 145.237 650.256 145.845C646.193 146.464 642.292 145.881 638.6 145.328L638.521 145.317C634.749 144.753 631.188 144.229 627.525 144.787C623.765 145.36 621.206 146.297 619.612 147.066C618.815 147.451 618.256 147.795 617.908 148.034C617.734 148.153 617.612 148.245 617.539 148.303C617.503 148.332 617.478 148.353 617.466 148.364L617.457 148.371L617.459 148.369L617.461 148.368L617.462 148.367ZM616.476 153.338C617.307 154.236 617.307 154.236 617.306 154.236L617.305 154.237L617.304 154.239L617.301 154.241L617.31 154.233C617.323 154.222 617.347 154.202 617.384 154.173C617.457 154.115 617.578 154.022 617.753 153.903C618.101 153.665 618.659 153.321 619.457 152.936C621.051 152.166 623.61 151.229 627.369 150.657C631.033 150.099 634.593 150.622 638.365 151.186L638.444 151.198C642.137 151.75 646.037 152.333 650.1 151.715C654.096 151.106 656.895 150.098 658.719 149.217C659.631 148.777 660.297 148.37 660.746 148.063C660.971 147.909 661.141 147.781 661.26 147.686C661.319 147.639 661.366 147.6 661.401 147.57C661.418 147.556 661.432 147.543 661.443 147.533L661.458 147.52L661.463 147.515L661.466 147.513L661.467 147.512C661.467 147.512 661.468 147.511 660.637 146.614C659.806 145.716 659.807 145.715 659.807 145.715L659.808 145.714L659.81 145.713L659.812 145.711L659.803 145.718C659.79 145.729 659.766 145.749 659.73 145.778C659.657 145.837 659.535 145.929 659.361 146.048C659.012 146.286 658.454 146.631 657.656 147.016C656.063 147.785 653.503 148.722 649.744 149.295C646.08 149.852 642.52 149.329 638.748 148.765L638.669 148.753C634.976 148.201 631.076 147.618 627.013 148.237C623.017 148.845 620.219 149.854 618.394 150.735C617.482 151.175 616.816 151.582 616.367 151.889C616.143 152.042 615.973 152.171 615.854 152.265C615.794 152.313 615.747 152.352 615.713 152.381C615.695 152.396 615.681 152.408 615.67 152.418L615.656 152.431L615.65 152.436L615.648 152.438L615.647 152.439C615.646 152.44 615.646 152.44 616.476 153.338Z" fill="white"/>
</g>
<circle cx="638.5" cy="128.5" r="26.25" stroke="white" stroke-width="2.5"/>
</g>
<g opacity="0.2" clip-path="url(#clip18_14447_69877)">
<path d="M746.603 50.4363C742.982 58.4302 736.584 64.7945 727.218 67.3596C712.858 71.2921 698.072 62.6535 694.258 48.1029C691.163 36.2151 698.137 23.9911 709.847 20.7774C719.383 18.1712 729.169 23.8883 731.721 33.5573C733.769 41.4231 729.154 49.5113 721.406 51.6376C715.12 53.3553 708.669 49.5864 706.987 43.2126C705.643 38.0515 708.671 32.7444 713.755 31.3491C717.856 30.2283 722.064 32.6869 723.162 36.8451C724.032 40.1879 722.071 43.6252 718.778 44.5289C716.147 45.2482 713.406 43.5549 712.742 41.0022C712.189 38.882 713.836 37.1635 715.892 37.539" stroke="white" stroke-width="3.05273" stroke-linecap="round" stroke-linejoin="bevel"/>
<path d="M749.341 36.5C749.341 55.7421 733.742 71.3409 714.5 71.3409C695.258 71.3409 679.659 55.7421 679.659 36.5C679.659 17.2579 695.258 1.65909 714.5 1.65909C733.742 1.65909 749.341 17.2579 749.341 36.5Z" stroke="white" stroke-width="3.31818"/>
</g>
<g opacity="0.2">
<g clip-path="url(#clip19_14447_69877)">
<circle cx="998.5" cy="143.5" r="26.25" stroke="white" stroke-width="2.5"/>
<path d="M1011 148C1011 148.667 1011.48 150 1013.38 150C1015.29 150 1015.92 148.667 1016 148" stroke="white" stroke-width="2.5" stroke-linecap="round"/>
<path d="M1003 148C1003 148.667 1003.48 150 1005.38 150C1007.29 150 1007.92 148.667 1008 148" stroke="white" stroke-width="2.5" stroke-linecap="round"/>
<path d="M983 136C983 137.333 983.857 140 987.286 140C990.714 140 991.857 137.333 992 136" stroke="white" stroke-width="2.5" stroke-linecap="round"/>
<path d="M1005 158C1005 156.667 1005.86 154 1009.29 154C1012.71 154 1013.86 156.667 1014 158" stroke="white" stroke-width="2.5" stroke-linecap="round"/>
<path d="M981 132C981 131.333 981.476 130 983.381 130C985.286 130 985.921 131.333 986 132" stroke="white" stroke-width="2.5" stroke-linecap="round"/>
<path d="M990 132C990 131.333 990.476 130 992.381 130C994.286 130 994.921 131.333 995 132" stroke="white" stroke-width="2.5" stroke-linecap="round"/>
<path d="M1025 145C1021.96 140.953 1018.12 139 1012.67 139C1003.46 139 996 146.462 996 155.667C996 161.119 998.618 165.959 1002.67 169" stroke="white" stroke-width="2.5"/>
<path d="M995.596 118C998.923 121.061 1001 125.402 1001 130.216C1001 139.486 993.302 147 983.807 147C979.713 147 974.953 145.332 972 143" stroke="white" stroke-width="2.5"/>
</g>
</g>
<g opacity="0.1">
<g clip-path="url(#clip20_14447_69877)">
<circle cx="1008.51" cy="503.515" r="23.4007" stroke="white" stroke-width="2.22863"/>
</g>
<path fill-rule="evenodd" clip-rule="evenodd" d="M1005.68 489.241L1009.35 490.682L1011.43 491.365L1015.59 497.756L1018.23 495.455L1022.83 502.848L1020.94 504.026L1017.72 498.857L1015.13 501.123L1009.99 493.239L1008.59 492.78L1006.45 491.937L1003 496.54L1002.06 499.305L998.524 501.622L997.496 503.896L995.465 502.978L996.761 500.113L1000.2 497.862L1001 495.487L1005.68 489.241Z" fill="white"/>
<mask id="mask3_14447_69877" style="mask-type:alpha" maskUnits="userSpaceOnUse" x="992" y="505" width="34" height="13">
<path fill-rule="evenodd" clip-rule="evenodd" d="M992.915 505.744H1025.9V506.635H992.915V505.744ZM992.915 507.527H1025.9V508.418H992.915V507.527ZM1025.9 509.309H992.915V510.201H1025.9V509.309ZM992.915 511.092H1025.9V511.984H992.915V511.092ZM1025.9 512.875H992.915V513.767H1025.9V512.875ZM992.915 514.658H1025.9V515.55H992.915V514.658ZM1025.9 516.441H992.915V517.333H1025.9V516.441Z" fill="url(#paint1_linear_14447_69877)"/>
</mask>
<g mask="url(#mask3_14447_69877)">
<path fill-rule="evenodd" clip-rule="evenodd" d="M1005.68 518.902L1009.35 517.461L1011.43 516.778L1015.59 510.387L1018.28 512.738L1023.31 503.607L1021.36 502.532L1017.67 509.238L1015.13 507.02L1009.99 514.905L1008.59 515.364L1006.45 516.207L1003 511.604L1002.06 508.839L998.535 506.529L997.059 503.077L995.01 503.953L996.75 508.024L1000.2 510.282L1001 512.656L1005.68 518.902Z" fill="white"/>
</g>
</g>
<defs>
<linearGradient id="paint0_linear_14447_69877" x1="798.5" y1="512" x2="785" y2="521" gradientUnits="userSpaceOnUse">
<stop stop-color="white"/>
<stop offset="1" stop-color="white" stop-opacity="0"/>
</linearGradient>
<linearGradient id="paint1_linear_14447_69877" x1="1009.41" y1="505.744" x2="1009.41" y2="517.333" gradientUnits="userSpaceOnUse">
<stop stop-color="#DC4CBB"/>
<stop offset="1" stop-color="#A51EB4"/>
</linearGradient>
<clipPath id="clip0_14447_69877">
<rect width="55" height="55" fill="white" transform="translate(1116 186)"/>
</clipPath>
<clipPath id="clip1_14447_69877">
<rect width="55" height="55" fill="white" transform="translate(515 186)"/>
</clipPath>
<clipPath id="clip2_14447_69877">
<rect width="55" height="55" fill="white" transform="translate(1271 89)"/>
</clipPath>
<clipPath id="clip3_14447_69877">
<rect width="55" height="55" fill="white" transform="translate(360 89)"/>
</clipPath>
<clipPath id="clip4_14447_69877">
<rect width="55" height="55" fill="white" transform="translate(320 399)"/>
</clipPath>
<clipPath id="clip5_14447_69877">
<rect width="55" height="55" fill="white" transform="translate(1311 399)"/>
</clipPath>
<clipPath id="clip6_14447_69877">
<rect width="55" height="55" fill="white" transform="translate(145 241)"/>
</clipPath>
<clipPath id="clip7_14447_69877">
<rect width="55" height="55" fill="white" transform="translate(1486 241)"/>
</clipPath>
<clipPath id="clip8_14447_69877">
<rect width="55" height="55" fill="white" transform="translate(0 337)"/>
</clipPath>
<clipPath id="clip9_14447_69877">
<rect width="55" height="55" fill="white" transform="translate(1631 337)"/>
</clipPath>
<clipPath id="clip10_14447_69877">
<rect width="28" height="28" fill="white" transform="translate(916 259)"/>
</clipPath>
<clipPath id="clip11_14447_69877">
<rect width="55" height="55" fill="white" transform="translate(885 13)"/>
</clipPath>
<clipPath id="clip12_14447_69877">
<rect width="59" height="59" fill="white" transform="translate(685 214)"/>
</clipPath>
<clipPath id="clip13_14447_69877">
<rect width="55" height="55" fill="white" transform="translate(993 287)"/>
</clipPath>
<clipPath id="clip14_14447_69877">
<rect width="42" height="42" fill="white" transform="translate(616 394)"/>
</clipPath>
<clipPath id="clip15_14447_69877">
<rect width="55" height="55" fill="white" transform="translate(894 396)"/>
</clipPath>
<clipPath id="clip16_14447_69877">
<rect width="55" height="55" fill="white" transform="translate(761 497)"/>
</clipPath>
<clipPath id="clip17_14447_69877">
<rect width="55" height="55" fill="white" transform="translate(611 101)"/>
</clipPath>
<clipPath id="clip18_14447_69877">
<rect width="73" height="73" fill="white" transform="translate(678)"/>
</clipPath>
<clipPath id="clip19_14447_69877">
<rect width="55" height="55" fill="white" transform="translate(971 116)"/>
</clipPath>
<clipPath id="clip20_14447_69877">
<rect width="49.03" height="49.03" fill="white" transform="translate(984 479)"/>
</clipPath>
</defs>
</svg>
