<svg width="150" height="30" viewBox="0 0 150 30" fill="none" xmlns="http://www.w3.org/2000/svg">
<path fill-rule="evenodd" clip-rule="evenodd" d="M102.739 9.61028L97.7316 9.61028V29.2398H102.739V9.61028ZM97.8986 0.899686C97.3143 1.47221 97.0222 2.15379 97.0222 2.94442C97.0222 3.73506 97.3143 4.43027 97.8986 5.03006C98.5106 5.60259 99.2757 5.88885 100.194 5.88885C101.112 5.88885 101.877 5.61622 102.489 5.07095C103.129 4.49843 103.449 3.78958 103.449 2.94442C103.449 2.09927 103.129 1.40405 102.489 0.858791C101.877 0.286264 101.112 0 100.194 0C99.2757 0 98.5106 0.299895 97.8986 0.899686ZM0.863384 0.286264C0.38655 0.286264 0 0.672814 0 1.14965L0 29.2398H5.25816L5.25816 17.2576H9.01399C10.572 17.2576 12.0604 17.1486 13.4792 16.9304C14.9259 16.7123 16.1918 16.3034 17.2768 15.7036C18.3618 15.0765 19.2243 14.2041 19.8642 13.0863C20.504 11.9685 20.7443 10.4963 20.7443 8.6697C20.7443 7.06117 20.518 5.72527 19.9059 4.66201C19.3216 3.57148 18.5288 2.71269 17.5272 2.08563C16.5256 1.43132 15.3572 0.967843 14.0218 0.695212C12.7142 0.42258 11.3509 0.286264 9.93208 0.286264L0.863384 0.286264ZM10.7667 12.7592C9.9599 12.8137 9.18091 12.841 8.42975 12.841H5.25816L5.25816 4.7029L9.01399 4.7029C9.70951 4.7029 10.4329 4.7438 11.184 4.82559C11.9352 4.90737 12.6168 5.09822 13.2289 5.39811C13.8409 5.67075 14.3417 6.07969 14.7312 6.62496C15.1207 7.14296 15.3154 7.8518 15.3154 8.75148C15.3154 9.73296 15.0929 10.4963 14.6477 11.0416C14.2304 11.5869 13.674 11.9958 12.9785 12.2684C12.3108 12.5411 11.5735 12.7046 10.7667 12.7592ZM29.582 9.61028H24.5743L24.5743 29.2398L29.582 29.2398L29.582 18.7298C29.582 18.4572 29.6377 18.0482 29.749 17.503C29.8881 16.9577 30.1385 16.4124 30.5001 15.8672C30.8896 15.3219 31.4321 14.8448 32.1277 14.4359C32.851 13.9997 33.7969 13.7815 34.9654 13.7815C35.3549 13.7815 35.7444 13.8224 36.1339 13.9042C36.7741 13.9879 37.3858 13.5187 37.3858 12.873V10.3467C37.3858 9.79178 37.014 9.29866 36.4677 9.20133C36.1895 9.1468 35.8974 9.11954 35.5914 9.11954C34.256 9.11954 33.0736 9.43306 32.0442 10.0601C31.0148 10.6872 30.2219 11.5732 29.6655 12.7183H29.582V9.61028ZM53.1142 26.5407H52.989C52.2657 27.6585 51.3476 28.4764 50.2348 28.9944C49.1219 29.4851 47.8978 29.7305 46.5624 29.7305C45.6443 29.7305 44.7401 29.6078 43.8499 29.3625C42.9874 29.1171 42.2084 28.749 41.5129 28.2583C40.8452 27.7676 40.3027 27.1541 39.8854 26.418C39.4681 25.6819 39.2594 24.8231 39.2594 23.8417C39.2594 22.7784 39.4541 21.8787 39.8436 21.1426C40.2331 20.3792 40.7478 19.7522 41.3877 19.2614C42.0554 18.7434 42.8205 18.3345 43.6829 18.0346C44.5454 17.7347 45.4357 17.5166 46.3537 17.3803C47.2997 17.2167 48.2456 17.1213 49.1915 17.094C50.1374 17.0395 51.0277 17.0122 51.8623 17.0122H53.1142V16.4806C53.1142 15.2538 52.683 14.3404 51.8206 13.7406C50.9581 13.1136 49.8592 12.8001 48.5238 12.8001C47.4666 12.8001 46.4789 12.9909 45.5608 13.3726C45.2366 13.4978 44.928 13.6399 44.635 13.7991C43.7535 14.278 42.6166 14.2906 41.9001 13.5885C41.1579 12.8611 41.1414 11.6488 41.9987 11.0615C42.7467 10.549 43.5585 10.147 44.4341 9.85564C45.9364 9.36491 47.4805 9.11954 49.0663 9.11954C50.4852 9.11954 51.6815 9.28312 52.6552 9.61028C53.6289 9.91017 54.4357 10.3055 55.0756 10.7962C55.7155 11.287 56.2024 11.8595 56.5362 12.5138C56.8979 13.1409 57.1483 13.7815 57.2874 14.4359C57.4543 15.0902 57.5517 15.7309 57.5795 16.3579C57.6073 16.9577 57.6212 17.4893 57.6212 17.9528V29.2398H53.1142V26.5407ZM52.8221 20.4474H51.7788C51.0833 20.4474 50.3043 20.4747 49.4419 20.5292C48.5794 20.5837 47.7587 20.72 46.9797 20.9381C46.2285 21.129 45.5887 21.4289 45.0601 21.8378C44.5315 22.2195 44.2672 22.7648 44.2672 23.4736C44.2672 23.9371 44.3645 24.3324 44.5593 24.6596C44.7819 24.9595 45.0601 25.2185 45.3939 25.4366C45.7278 25.6547 46.1034 25.8182 46.5207 25.9273C46.938 26.0091 47.3553 26.05 47.7726 26.05C49.4975 26.05 50.7634 25.6547 51.5702 24.864C52.4048 24.0461 52.8221 22.942 52.8221 21.5516V20.4474ZM74.1435 14.0678C75.2713 14.6925 76.7276 14.7662 77.6484 13.8638L77.7321 13.7817C78.6829 12.85 78.7298 11.2863 77.5908 10.5973C77.0975 10.2989 76.5744 10.0517 76.0214 9.85564C74.7416 9.36491 73.4618 9.11954 72.1821 9.11954C70.6797 9.11954 69.2609 9.36491 67.9255 9.85564C66.5901 10.3464 65.4355 11.0416 64.4618 11.9413C63.488 12.841 62.709 13.9315 62.1248 15.2129C61.5684 16.467 61.2902 17.871 61.2902 19.425C61.2902 20.979 61.5684 22.3967 62.1248 23.6781C62.709 24.9322 63.488 26.0091 64.4618 26.9088C65.4355 27.8085 66.5901 28.5037 67.9255 28.9944C69.2609 29.4851 70.6797 29.7305 72.1821 29.7305C72.6272 29.7305 73.1558 29.676 73.7679 29.5669C74.3799 29.4851 75.0198 29.3352 75.6875 29.1171C76.3552 28.899 77.009 28.6127 77.6489 28.2583C78.7127 27.6936 78.7364 26.2897 77.9072 25.4163L77.594 25.0863C76.7865 24.2357 75.4053 24.348 74.3521 24.864C73.6844 25.1639 72.9611 25.3139 72.1821 25.3139C71.264 25.3139 70.4433 25.1503 69.7199 24.8231C68.9966 24.496 68.3706 24.0598 67.842 23.5145C67.3412 22.9692 66.9517 22.3422 66.6735 21.6333C66.4231 20.9245 66.2979 20.1884 66.2979 19.425C66.2979 18.6617 66.4231 17.9255 66.6735 17.2167C66.9517 16.5079 67.3412 15.8808 67.842 15.3355C68.3706 14.7903 68.9966 14.3541 69.7199 14.0269C70.4433 13.6998 71.264 13.5362 72.1821 13.5362C72.8498 13.5362 73.5036 13.7134 74.1435 14.0678ZM83.0226 13.7815V9.61028V4.78929C83.0226 4.31245 83.4091 3.9259 83.886 3.9259H88.0304V9.61028H93.5389V13.7815H88.0304V22.3695C88.0304 23.3509 88.2112 24.1279 88.5729 24.7005C88.9624 25.273 89.7136 25.5592 90.8264 25.5592C91.2715 25.5592 91.7584 25.5183 92.287 25.4366C92.8156 25.3275 93.2329 25.1639 93.5389 24.9458V29.0762C93.0103 29.3216 92.3566 29.4851 91.5776 29.5669C90.8264 29.676 90.1587 29.7305 89.5745 29.7305C88.2391 29.7305 87.1401 29.5806 86.2777 29.2807C85.443 29.008 84.7753 28.5855 84.2746 28.0129C83.8016 27.4131 83.4677 26.677 83.273 25.8046C83.1061 24.9322 83.0226 23.9235 83.0226 22.7784V13.7815ZM123.569 13.9104C122.762 14.9265 121.289 14.9832 120.169 14.3296C120.036 14.252 119.907 14.1806 119.776 14.1085L119.703 14.0678C119.063 13.7134 118.409 13.5362 117.741 13.5362C116.823 13.5362 116.002 13.6998 115.279 14.0269C114.556 14.3541 113.93 14.7903 113.401 15.3355C112.9 15.8808 112.511 16.5079 112.233 17.2167C111.982 17.9255 111.857 18.6617 111.857 19.425C111.857 20.1884 111.982 20.9245 112.233 21.6333C112.511 22.3422 112.9 22.9692 113.401 23.5145C113.93 24.0598 114.556 24.496 115.279 24.8231C116.002 25.1503 116.823 25.3139 117.741 25.3139C118.52 25.3139 119.244 25.1639 119.911 24.864C119.937 24.8514 119.964 24.8407 119.994 24.8316C123.206 23.4502 124.961 20.6331 126.762 17.7407L126.762 17.7406C128.801 14.467 130.9 11.0969 135.24 9.60192C136.534 9.07347 137.877 8.82683 139.322 8.82683C145.435 8.82683 150 13.3018 150 19.3623C150 25.4739 145.384 30.0001 139.272 30.0001C135.329 30.0001 132.282 28.1451 128.407 23.368C126.553 25.9087 123.914 28.5027 121.215 29.1273C120.559 29.3399 119.929 29.4864 119.327 29.5669C118.715 29.676 118.186 29.7305 117.741 29.7305C116.239 29.7305 114.82 29.4851 113.485 28.9944C112.149 28.5037 110.995 27.8085 110.021 26.9088C109.047 26.0091 108.268 24.9322 107.684 23.6781C107.127 22.3967 106.849 20.979 106.849 19.425C106.849 17.871 107.127 16.467 107.684 15.2129C108.268 13.9315 109.047 12.841 110.021 11.9413C110.995 11.0416 112.149 10.3464 113.485 9.85564C114.82 9.36491 116.239 9.11954 117.741 9.11954C119.021 9.11954 120.301 9.36491 121.58 9.85564C122.162 10.0619 122.711 10.3248 123.227 10.6445C124.352 11.3419 124.392 12.8735 123.569 13.9104ZM144.902 19.3367C144.902 22.5587 142.417 24.9369 139.094 24.9369C136.533 24.9369 134.605 23.5816 131.181 19.3879C134.174 15.3731 136.406 13.7877 139.12 13.7877C142.467 13.7877 144.902 16.1659 144.902 19.3367Z" fill="white"/>
<mask id="mask0_14326_72929" style="mask-type:alpha" maskUnits="userSpaceOnUse" x="117" y="8" width="33" height="22">
<path fill-rule="evenodd" clip-rule="evenodd" d="M135.237 9.60316C130.899 11.0989 128.801 14.4678 126.763 17.7402C124.947 20.6561 123.179 23.4954 119.917 24.8645C117.791 26.7395 114.884 29.847 120.554 29.2395C123.479 28.9263 126.401 26.1166 128.407 23.3689C132.282 28.1453 135.329 30.0001 139.271 30.0001C145.383 30.0001 149.999 25.4739 149.999 19.3623C149.999 13.3019 145.434 8.82684 139.322 8.82684C137.876 8.82684 136.531 9.07387 135.237 9.60316ZM144.902 19.3367C144.902 22.5588 142.416 24.9369 139.094 24.9369C136.532 24.9369 134.604 23.5816 131.181 19.3879C134.173 15.3732 136.405 13.7877 139.119 13.7877C142.467 13.7877 144.902 16.1659 144.902 19.3367Z" fill="white"/>
</mask>
<g mask="url(#mask0_14326_72929)">
<path opacity="0.3" d="M128.26 23.5705L131.189 19.3728C133.611 22.2754 135.348 23.7626 137.55 24.8084C139.751 25.8542 134.182 29.0983 134.182 29.0983C132.949 28.3282 132.178 27.7323 130.924 26.4945C129.669 25.2566 129.298 24.7864 128.26 23.5705Z" fill="url(#paint0_linear_14326_72929)" fill-opacity="0.5"/>
</g>
<defs>
<linearGradient id="paint0_linear_14326_72929" x1="129.889" y1="21.3935" x2="135.622" y2="26.7994" gradientUnits="userSpaceOnUse">
<stop stop-opacity="0.7"/>
<stop offset="1" stop-opacity="0"/>
</linearGradient>
</defs>
</svg>
